<svg width="252" height="168" viewBox="0 0 252 168" fill="none" xmlns="http://www.w3.org/2000/svg">
<g clip-path="url(#clip0_1529_1851)">
<path d="M168.21 167.616C176.389 165.054 183.728 162.436 192.557 157.468C201.662 152.343 242.111 127.956 247.371 85.7486C248.749 74.1808 247.605 62.4511 244.019 51.3694C242.393 46.5928 239.021 36.9993 230.509 27.5117C220.09 15.8905 208.201 11.3863 201.229 8.83915C186.562 3.47747 174.26 3.75993 168.401 3.9516C162.079 4.1584 150.92 4.62244 138.236 10.1758C129.961 13.7973 124.817 17.9283 117.236 24.102C105.226 33.8922 103.646 37.9677 82.6364 58.1837C76.868 63.732 72.1265 68.105 64.8884 72.4125C59.8701 75.3985 55.8131 77.0681 48.3284 80.1146C29.9311 87.6048 24.693 89.1214 18.673 93.3381C6.96523 101.545 7.72356 110.494 7.22021 112.421C5.9113 117.348 5.60828 122.49 6.32929 127.537C7.86449 137.661 13.3057 144.278 16.6831 148.283C21.3191 153.73 26.9369 158.254 33.2431 161.619C37.621 163.934 42.1555 165.938 46.8133 167.616H168.21Z" fill="#EFEDEF"/>
<path d="M137.475 6.81742C150.686 1.03697 162.307 0.549299 168.897 0.334686C174.995 0.136077 187.81 -0.157095 203.092 5.42825C210.353 8.08211 222.735 12.7738 233.59 24.8764C242.452 34.7586 245.965 44.7528 247.658 49.7268C251.392 61.2697 252.583 73.4871 251.149 85.5361C245.673 129.503 203.539 154.903 194.055 160.242" stroke="#6A8D99" stroke-miterlimit="10"/>
<path d="M174.118 167.369H156.787L154.507 140.692H176.398L174.118 167.369Z" fill="#FFE3CB"/>
<path d="M156.787 167.369C158.133 162.891 159.53 158.43 160.936 153.971C161.63 151.739 162.357 149.518 163.069 147.291L165.213 140.615C165.229 140.564 165.261 140.52 165.304 140.489C165.347 140.457 165.399 140.44 165.452 140.44C165.505 140.44 165.557 140.457 165.6 140.489C165.643 140.52 165.675 140.564 165.691 140.615L167.836 147.291C168.547 149.518 169.276 151.739 169.969 153.971L172.068 160.662L174.117 167.369L171.834 160.739L169.601 154.091C168.849 151.878 168.134 149.652 167.401 147.433L165.213 140.771H165.691L163.503 147.433C162.77 149.652 162.054 151.877 161.303 154.091C159.82 158.525 158.33 162.956 156.787 167.369Z" fill="#904D24"/>
<path d="M154.507 140.692C156.428 145.099 158.297 149.527 160.158 153.957L162.928 160.613L165.685 167.273H165.22L167.977 160.613C168.9 158.394 169.806 156.168 170.746 153.957L173.548 147.315L176.398 140.692L173.776 147.409L171.104 154.104C170.221 156.339 169.302 158.56 168.401 160.787L165.685 167.465C165.666 167.511 165.634 167.551 165.593 167.579C165.551 167.607 165.503 167.621 165.453 167.621C165.403 167.621 165.354 167.607 165.313 167.579C165.271 167.551 165.239 167.511 165.22 167.465L162.505 160.787L159.802 154.104C158.015 149.643 156.236 145.178 154.507 140.692Z" fill="#904D24"/>
<path d="M155.647 155.402C157.281 155.298 158.915 155.249 160.55 155.209C162.184 155.163 163.818 155.156 165.452 155.15C167.086 155.156 168.721 155.162 170.355 155.208L172.806 155.278C173.623 155.32 174.44 155.345 175.257 155.402C174.44 155.459 173.623 155.484 172.806 155.526L170.355 155.596C168.721 155.642 167.086 155.648 165.452 155.654C163.818 155.648 162.184 155.641 160.55 155.595C158.915 155.555 157.281 155.506 155.647 155.402Z" fill="#904D24"/>
<path d="M176.701 138.282H154.204C153.846 138.282 153.555 138.573 153.555 138.933V140.042C153.555 140.401 153.846 140.693 154.204 140.693H176.701C177.059 140.693 177.35 140.401 177.35 140.042V138.933C177.35 138.573 177.059 138.282 176.701 138.282Z" fill="#904D24"/>
<path d="M116.846 7.2168H112.757C111.527 7.2168 110.53 8.21562 110.53 9.44774V13.5461C110.53 14.7782 111.527 15.777 112.757 15.777H116.846C118.076 15.777 119.073 14.7782 119.073 13.5461V9.44774C119.073 8.21562 118.076 7.2168 116.846 7.2168Z" fill="#DC8758"/>
<path d="M91.6026 167.495H88.1426L102.165 104.335L109.229 106.241L91.6026 167.495Z" fill="#DC8758"/>
<path d="M138.423 167.495H141.882L127.86 104.335L120.796 106.241L138.423 167.495Z" fill="#DC8758"/>
<path d="M173.019 12.27H56.3563C55.5366 12.27 54.8721 12.9359 54.8721 13.7573V111.523C54.8721 112.345 55.5366 113.011 56.3563 113.011H173.019C173.839 113.011 174.503 112.345 174.503 111.523V13.7573C174.503 12.9359 173.839 12.27 173.019 12.27Z" fill="#FFE3CB"/>
<path d="M125.007 30.3808C124.867 30.3806 124.732 30.3262 124.632 30.2288C124.531 30.1315 124.472 29.9988 124.467 29.8588C124.462 29.7187 124.511 29.5821 124.605 29.4778C124.698 29.3734 124.828 29.3093 124.968 29.2991L134.879 28.5688C134.949 28.5636 135.021 28.5724 135.088 28.5948C135.155 28.6171 135.218 28.6525 135.271 28.699C135.325 28.7454 135.369 28.802 135.401 28.8656C135.433 28.9291 135.452 28.9983 135.457 29.0692C135.462 29.1402 135.454 29.2114 135.431 29.2789C135.409 29.3464 135.374 29.4089 135.327 29.4627C135.281 29.5166 135.225 29.5607 135.161 29.5927C135.098 29.6246 135.029 29.6438 134.958 29.649L125.047 30.3792C125.033 30.3802 125.02 30.3808 125.007 30.3808Z" fill="#904D24"/>
<path d="M134.918 33.1629H125.007C124.864 33.1629 124.726 33.1058 124.625 33.0042C124.524 32.9027 124.467 32.7649 124.467 32.6212C124.467 32.4776 124.524 32.3398 124.625 32.2382C124.726 32.1367 124.864 32.0796 125.007 32.0796H134.918C135.062 32.0796 135.199 32.1367 135.301 32.2382C135.402 32.3398 135.459 32.4776 135.459 32.6212C135.459 32.7649 135.402 32.9027 135.301 33.0042C135.199 33.1058 135.062 33.1629 134.918 33.1629Z" fill="#904D24"/>
<path d="M134.918 36.6746H125.007C124.864 36.6746 124.726 36.6175 124.625 36.516C124.524 36.4144 124.467 36.2766 124.467 36.133C124.467 35.9893 124.524 35.8515 124.625 35.75C124.726 35.6484 124.864 35.5913 125.007 35.5913H134.918C135.062 35.5913 135.199 35.6484 135.301 35.75C135.402 35.8515 135.459 35.9893 135.459 36.133C135.459 36.2766 135.402 36.4144 135.301 36.516C135.199 36.6175 135.062 36.6746 134.918 36.6746Z" fill="#904D24"/>
<path d="M134.918 39.0345H125.007C124.864 39.0345 124.726 38.9774 124.625 38.8758C124.524 38.7742 124.467 38.6365 124.467 38.4928C124.467 38.3492 124.524 38.2114 124.625 38.1098C124.726 38.0082 124.864 37.9512 125.007 37.9512H134.918C135.062 37.9512 135.199 38.0082 135.301 38.1098C135.402 38.2114 135.459 38.3492 135.459 38.4928C135.459 38.6365 135.402 38.7742 135.301 38.8758C135.199 38.9774 135.062 39.0345 134.918 39.0345Z" fill="#904D24"/>
<path d="M78.0215 97.3662C77.8781 97.3661 77.7406 97.3091 77.6393 97.2075C77.5379 97.1059 77.481 96.9682 77.481 96.8245V29.109C77.481 28.9654 77.5379 28.8276 77.6393 28.726C77.7406 28.6244 77.8781 28.5674 78.0215 28.5674C78.1648 28.5674 78.3023 28.6244 78.4037 28.726C78.5051 28.8276 78.562 28.9654 78.562 29.109V96.8245C78.562 96.9682 78.505 97.1059 78.4037 97.2075C78.3023 97.3091 78.1648 97.3661 78.0215 97.3662Z" fill="#904D24"/>
<path d="M163.073 85.9578H66.3018C66.1584 85.9578 66.0209 85.9007 65.9195 85.7992C65.8182 85.6976 65.7612 85.5598 65.7612 85.4162C65.7612 85.2725 65.8182 85.1347 65.9195 85.0332C66.0209 84.9316 66.1584 84.8745 66.3018 84.8745H163.073C163.217 84.8745 163.354 84.9316 163.456 85.0332C163.557 85.1347 163.614 85.2725 163.614 85.4162C163.614 85.5598 163.557 85.6976 163.456 85.7992C163.354 85.9007 163.217 85.9578 163.073 85.9578Z" fill="#904D24"/>
<path d="M83.0439 79.3724C82.9462 79.3723 82.8503 79.3456 82.7665 79.2953C82.6827 79.2449 82.6141 79.1728 82.568 79.0865C82.5218 79.0002 82.4999 78.9029 82.5045 78.8051C82.5091 78.7073 82.5401 78.6126 82.5942 78.531L92.3049 63.8832C92.3585 63.8043 92.4316 63.7407 92.517 63.6985C92.6024 63.6564 92.6973 63.6371 92.7924 63.6426C92.8877 63.6491 92.9795 63.6809 93.0585 63.7346C93.1376 63.7883 93.201 63.862 93.2424 63.9483L98.1224 74.1198L111.358 47.6134C111.406 47.5146 111.483 47.433 111.579 47.3799C111.675 47.3268 111.785 47.3047 111.895 47.3166C112.003 47.3273 112.106 47.3709 112.19 47.4415C112.274 47.5122 112.334 47.6066 112.363 47.7123L117.039 64.7991L121.082 57.6379C121.131 57.5502 121.204 57.478 121.292 57.4296C121.38 57.3811 121.48 57.3583 121.581 57.3636C121.681 57.3689 121.778 57.4021 121.861 57.4596C121.943 57.5171 122.008 57.5965 122.048 57.6889L127.53 70.351L131.423 59.3972C131.457 59.3012 131.518 59.2168 131.598 59.1536C131.677 59.0905 131.773 59.0513 131.874 59.0404C131.976 59.0287 132.078 59.0461 132.17 59.0908C132.261 59.1355 132.338 59.2054 132.391 59.2924L136.235 65.477L149.866 38.2501C149.913 38.1556 149.987 38.0771 150.078 38.0241C150.17 37.9711 150.274 37.9461 150.38 37.952C150.485 37.9579 150.586 37.9946 150.671 38.0575C150.756 38.1204 150.82 38.2067 150.857 38.3059L153.454 45.3806L162.597 28.2013C162.63 28.1385 162.675 28.0829 162.73 28.0378C162.785 27.9926 162.848 27.9587 162.916 27.938C162.984 27.9173 163.055 27.9102 163.126 27.9171C163.197 27.924 163.265 27.9448 163.328 27.9783C163.391 28.0118 163.446 28.0573 163.491 28.1123C163.536 28.1672 163.57 28.2305 163.591 28.2986C163.611 28.3666 163.618 28.4381 163.612 28.5089C163.605 28.5797 163.584 28.6484 163.55 28.7112L153.84 46.9572C153.791 47.0494 153.716 47.1254 153.625 47.176C153.534 47.2267 153.43 47.2498 153.326 47.2426C153.222 47.2354 153.122 47.1982 153.038 47.1355C152.955 47.0728 152.892 46.9873 152.856 46.8892L150.273 39.8536L136.769 66.8261C136.726 66.9121 136.661 66.9851 136.58 67.0376C136.499 67.09 136.406 67.12 136.31 67.1244C136.215 67.1274 136.12 67.1055 136.035 67.0609C135.95 67.0163 135.879 66.9504 135.827 66.8697L132.066 60.8179L128.088 72.008C128.052 72.1104 127.986 72.1994 127.898 72.2636C127.811 72.3277 127.706 72.364 127.597 72.3676C127.489 72.3713 127.382 72.3422 127.29 72.2841C127.199 72.226 127.127 72.1416 127.083 72.0418L121.488 59.1179L117.335 66.4754C117.282 66.5687 117.203 66.6443 117.107 66.6925C117.012 66.7407 116.904 66.7594 116.798 66.7462C116.692 66.733 116.592 66.6885 116.511 66.6183C116.43 66.5482 116.371 66.4555 116.343 66.3521L111.693 49.3626L98.5962 75.5919C98.5479 75.6801 98.4776 75.7541 98.392 75.8066C98.3065 75.8591 98.2087 75.8883 98.1084 75.8913C98.0073 75.8905 97.9085 75.8613 97.8231 75.807C97.7377 75.7527 97.6692 75.6756 97.6254 75.5842L92.6797 65.2757L83.4947 79.1303C83.4454 79.2049 83.3784 79.266 83.2997 79.3082C83.221 79.3505 83.1332 79.3725 83.0439 79.3724Z" fill="#904D24"/>
<path d="M68.646 71.3002C68.5026 71.3002 68.3652 71.2431 68.2638 71.1416C68.1624 71.04 68.1055 70.9022 68.1055 70.7586V38.4928C68.1055 38.3492 68.1624 38.2114 68.2638 38.1098C68.3652 38.0082 68.5026 37.9512 68.646 37.9512C68.7894 37.9512 68.9268 38.0082 69.0282 38.1098C69.1296 38.2114 69.1865 38.3492 69.1865 38.4928V70.7585C69.1865 70.9022 69.1296 71.04 69.0282 71.1415C68.9268 71.2431 68.7894 71.3002 68.646 71.3002Z" fill="#904D24"/>
<path d="M141.979 94.4309H141.971L91.4084 93.7171C91.2651 93.715 91.1284 93.656 91.0285 93.553C90.9285 93.45 90.8735 93.3114 90.8755 93.1678C90.8797 93.0248 90.9392 92.8891 91.0416 92.7894C91.1439 92.6897 91.281 92.6339 91.4237 92.6338L141.986 93.3476C142.129 93.3496 142.265 93.408 142.365 93.5102C142.465 93.6123 142.52 93.7499 142.519 93.8929C142.518 94.036 142.461 94.1728 142.359 94.2736C142.258 94.3744 142.121 94.4309 141.979 94.4309Z" fill="#904D24"/>
<path d="M133.771 109.263H96.2145C95.5793 109.263 95.0645 109.779 95.0645 110.415V113.562C95.0645 114.199 95.5793 114.715 96.2145 114.715H133.771C134.406 114.715 134.921 114.199 134.921 113.562V110.415C134.921 109.779 134.406 109.263 133.771 109.263Z" fill="#DC8758"/>
<path d="M13.9366 121.183C15.1505 122.128 17.2892 124.373 17.3469 126.056C17.3469 126.056 21.2775 121.774 20.16 118.111C19.498 116.742 18.3997 115.634 17.0387 114.961C17.0387 114.961 18.58 114.094 20.1984 116.221C20.1984 116.221 19.6205 110.471 11.6247 112.558C11.6247 112.558 8.50336 106.178 2.31872 112.204C2.31872 112.204 6.48038 111.672 5.67116 112.972C4.16458 113.396 2.75449 114.109 1.51907 115.072C1.1047 115.44 0.767719 115.887 0.527855 116.387C0.287992 116.886 0.150072 117.429 0.122173 117.983C0.0259032 119.539 -0.121798 122.617 0.180058 122.66C0.584591 122.719 3.24353 120.297 5.03538 120.474C6.82724 120.651 0.931421 125.968 0.931421 125.968C0.931421 125.968 2.14533 130.575 2.66558 130.516C3.18567 130.457 5.07395 129.138 4.30315 130.516L2.97382 131.58L4.70784 133.982L9.0622 132.052C9.0622 132.052 7.1355 126.775 8.90807 128.212C8.90807 128.212 10.2567 130.004 10.276 131.343C10.276 131.343 16.1042 128.803 15.5263 127.061C14.897 125.444 14.1611 123.87 13.3234 122.351C13.183 122.094 13.1007 121.81 13.0826 121.518C13.0633 121.075 13.1788 120.592 13.9366 121.183ZM13.2206 115.066C13.7665 114.688 15.1088 114.931 15.6129 116.162C16.1525 117.478 16.1299 118.945 15.5841 119.322C15.0381 119.699 13.4871 119.207 13.0986 117.934C12.6683 116.516 12.6747 115.443 13.2206 115.066Z" fill="#8B9D36"/>
<path d="M11.6248 112.558C11.0032 113.267 10.4286 114.015 9.90459 114.799C9.40915 115.596 9.00046 116.444 8.68552 117.329C8.37306 118.216 8.10509 119.118 7.88261 120.031C7.65006 120.947 7.42792 121.862 7.24273 122.786C7.04651 123.708 6.87506 124.635 6.73466 125.566C6.59008 126.498 6.50689 127.434 6.39269 128.376C6.17116 130.268 5.60808 132.104 4.73096 133.794C5.10484 132.927 5.41337 132.034 5.65396 131.121C5.90347 130.215 6.06774 129.287 6.14465 128.35C6.28339 126.458 6.54427 124.578 6.92565 122.72C7.12165 121.792 7.35526 120.871 7.59747 119.957C7.8256 119.034 8.11157 118.126 8.45366 117.239C8.80083 116.351 9.24326 115.504 9.77315 114.711C10.3351 113.948 10.9541 113.228 11.6248 112.558Z" fill="#5E7C24"/>
<path d="M9.35497 115.56C8.71911 115.694 8.09382 115.875 7.48404 116.1C6.87596 116.321 6.27492 116.562 5.69163 116.843C4.50868 117.372 3.38666 118.023 2.2417 118.662C2.49169 118.45 2.75263 118.251 3.01143 118.049C3.28237 117.864 3.54916 117.672 3.82651 117.496C4.38426 117.146 4.96187 116.83 5.55641 116.548C6.15725 116.276 6.77626 116.047 7.40893 115.863C8.04105 115.674 8.69565 115.573 9.35497 115.56Z" fill="#5E7C24"/>
<path d="M6.72068 124.696C6.27288 125.044 5.80671 125.329 5.35147 125.626C5.12333 125.772 4.90053 125.924 4.68306 126.08C4.45872 126.229 4.26987 126.426 4.12988 126.657C4.16061 126.363 4.29725 126.091 4.51412 125.891C4.71424 125.688 4.936 125.508 5.17544 125.353C5.64765 125.044 6.17085 124.822 6.72068 124.696Z" fill="#5E7C24"/>
<path d="M7.61328 120.488C8.14099 120.984 8.63319 121.516 9.0862 122.08C9.54262 122.644 9.96587 123.234 10.3538 123.847C10.7396 124.465 11.0707 125.116 11.3433 125.791C11.6245 126.466 11.7787 127.186 11.798 127.917C11.6574 127.215 11.4275 126.533 11.114 125.89C10.8125 125.243 10.4666 124.618 10.0788 124.019C9.71539 123.403 9.30135 122.818 8.88855 122.231C8.47435 121.645 8.04664 121.067 7.61328 120.488Z" fill="#5E7C24"/>
<path d="M2.28027 138.944L3.8987 140.44C3.8987 140.44 5.4786 138.766 5.652 139.928C5.652 139.928 5.40153 141.09 5.09326 141.188C5.09326 141.188 8.96593 144.309 9.74624 141.74C10.0599 140.59 10.4559 139.465 10.9312 138.373C10.9312 138.373 11.7982 138.845 11.0468 142.567C11.0468 142.567 14.0439 141.684 15.1568 140.065C15.2847 139.874 15.3528 139.649 15.3526 139.419C15.3634 138.493 15.4851 135.888 16.5379 136.866C16.5379 136.866 17.1448 137.162 16.6824 139.141C16.6824 139.141 19.1215 136.385 17.9629 134.691C17.734 134.374 17.4024 134.146 17.0246 134.046C16.6468 133.946 16.2461 133.981 15.8908 134.144C15.2134 134.438 13.9566 134.981 11.6248 135.98C8.62274 137.295 5.49053 138.288 2.28027 138.944Z" fill="#8B9D36"/>
<path d="M7.61328 141.228C7.76324 140.376 8.03141 139.55 8.40999 138.774C8.59681 138.379 8.82628 138.007 9.09428 137.662C9.23084 137.488 9.38876 137.331 9.56436 137.195C9.73857 137.054 9.95576 136.976 10.1801 136.975C9.79744 137.141 9.48562 137.437 9.29954 137.811C9.07969 138.168 8.87992 138.537 8.70117 138.916C8.3291 139.674 7.9977 140.455 7.61328 141.228Z" fill="#5E7C24"/>
<path d="M12.8772 140.007C12.833 139.245 12.9021 138.48 13.0824 137.738C13.1723 137.364 13.299 136.999 13.4608 136.649C13.6096 136.284 13.8799 135.982 14.2259 135.793C13.9757 136.065 13.7935 136.391 13.6944 136.747C13.5814 137.097 13.4843 137.454 13.3974 137.815C13.2219 138.538 13.0763 139.27 12.8772 140.007Z" fill="#5E7C24"/>
<path d="M39.8122 113.18C39.8122 113.18 35.9203 113.739 39.3884 116.496C39.3884 116.496 40.2746 117.244 43.1647 118.111C43.1647 118.111 44.9758 110.218 39.8122 113.18Z" fill="#5E7C24"/>
<path d="M43.165 118.111C43.0929 117.852 43.0457 117.593 42.9808 117.339C42.8998 117.088 42.8413 116.834 42.7526 116.59C42.5859 116.102 42.3677 115.633 42.1019 115.191C41.831 114.756 41.5007 114.361 41.1206 114.018C40.7345 113.667 40.2923 113.384 39.8125 113.18C40.3467 113.269 40.8506 113.489 41.2796 113.82C41.7157 114.149 42.0877 114.556 42.3771 115.02C42.6564 115.485 42.8645 115.99 42.9943 116.518C43.065 116.778 43.0916 117.048 43.1363 117.31C43.1494 117.579 43.1656 117.845 43.165 118.111Z" fill="#50661A"/>
<path d="M34.8729 97.2329C34.8729 97.2329 39.1877 94.4782 40.4801 100.595C40.4801 100.595 38.2408 98.6634 38.2112 99.7807C38.9365 100.632 39.4883 101.617 39.8355 102.681C40.0366 103.473 39.9248 104.313 39.5234 105.025C38.9749 106.026 37.8667 107.99 37.672 107.901C37.4112 107.782 36.7901 105.257 35.6682 104.677C34.5462 104.098 35.9443 109.664 35.9443 109.664C35.9443 109.664 33.4395 112.054 33.1567 111.817C32.8739 111.58 32.2767 110.036 32.194 111.187L32.5621 112.357L30.609 113.18L28.8001 110.307C28.8001 110.307 31.9841 107.776 30.3835 107.985C30.3835 107.985 28.8942 108.578 28.3623 109.4C28.3623 109.4 25.9244 105.582 26.9416 104.724C27.9352 103.968 28.9767 103.277 30.0595 102.655C30.2779 102.531 30.4606 102.352 30.59 102.137C30.7335 101.889 30.7615 101.625 30.161 101.691C29.0801 101.81 26.9505 102.379 26.2619 103.4C26.2619 103.4 25.617 99.232 27.6977 97.391C28.6041 96.8029 29.6818 96.5379 30.757 96.6388C30.757 96.6388 30.1879 95.5083 28.4099 96.204C28.4099 96.204 30.985 92.8612 34.8729 97.2329Z" fill="#5E7C24"/>
<path d="M36.8064 104.081C36.4543 103.221 36.1239 102.368 35.7222 101.556C35.525 101.152 35.2913 100.768 35.0241 100.408C34.773 100.032 34.3888 99.7662 33.9492 99.6639C34.19 99.6562 34.4293 99.7042 34.6485 99.8041C34.8678 99.904 35.0612 100.053 35.2137 100.24C35.5339 100.59 35.8027 100.984 36.012 101.41C36.424 102.25 36.6925 103.152 36.8064 104.081Z" fill="#50661A"/>
<path d="M27.9438 106.139C28.1638 105.661 28.4408 105.213 28.7686 104.802C29.0924 104.382 29.4686 104.005 29.8879 103.681C30.3092 103.347 30.7918 103.099 31.3084 102.951C31.8264 102.813 32.3732 102.831 32.8812 103.002C32.3742 102.958 31.8638 103.023 31.3839 103.193C30.9158 103.374 30.4778 103.626 30.0848 103.939C29.6814 104.249 29.3048 104.593 28.9593 104.967C28.61 105.342 28.2667 105.728 27.9438 106.139Z" fill="#50661A"/>
<path d="M31.9897 97.79C32.1487 97.5772 32.3483 97.3982 32.5771 97.2635C32.8058 97.1288 33.059 97.0412 33.3219 97.0056C33.5858 96.9644 33.8539 96.9573 34.1196 96.9843C34.3843 97.0145 34.6458 97.0684 34.901 97.1454L34.9959 97.1721L34.9572 97.2701C34.4531 98.546 34.0248 99.8566 33.6019 101.164C33.188 102.476 32.8152 103.8 32.4502 105.127C32.0993 106.457 31.7708 107.793 31.4647 109.136C31.1568 110.478 30.886 111.828 30.6089 113.18C30.7782 111.811 30.9817 110.445 31.2484 109.09C31.491 107.73 31.8203 106.388 32.1544 105.049C32.4915 103.709 32.8918 102.386 33.3228 101.074C33.7511 99.7598 34.2311 98.4649 34.7884 97.1964L34.8444 97.321L34.4762 97.211C34.3509 97.1873 34.2264 97.156 34.1004 97.1352C33.8478 97.0943 33.591 97.086 33.3363 97.1104C32.8166 97.1539 32.334 97.3975 31.9897 97.79Z" fill="#50661A"/>
<path d="M33.3238 109.615C33.1984 109.143 33.0252 108.685 32.8069 108.249C32.705 108.053 32.5523 107.888 32.3647 107.772C32.148 107.675 31.9114 107.631 31.6743 107.643C31.7918 107.573 31.9222 107.528 32.0575 107.51C32.1928 107.492 32.3304 107.501 32.4621 107.538C32.73 107.638 32.9521 107.833 33.087 108.086C33.3403 108.552 33.424 109.093 33.3238 109.615Z" fill="#50661A"/>
<path d="M18.9269 141.228C18.9269 141.228 18.1599 138.575 16.2127 140.075C15.5508 140.602 15.0773 141.33 14.8633 142.149C14.5121 143.419 14.2086 145.72 15.0735 148.986C15.0735 148.986 17.0669 146.223 18.5416 145.245C20.2047 144.142 21.2775 141.622 18.9269 141.228Z" fill="#C4CE6E"/>
<path d="M18.9266 141.228C18.6338 141.445 18.3783 141.708 18.1704 142.008C17.9502 142.296 17.7509 142.6 17.574 142.916C17.2135 143.548 16.8929 144.201 16.6141 144.873C16.32 145.54 16.0664 146.225 15.8146 146.912L15.0732 148.986C15.1365 148.623 15.2203 148.265 15.2935 147.903C15.3781 147.544 15.4834 147.191 15.5776 146.834C15.7823 146.125 16.0414 145.432 16.3165 144.745C16.6122 144.064 16.9624 143.408 17.3636 142.784C17.7458 142.142 18.2834 141.607 18.9266 141.228Z" fill="#8B9D36"/>
<path d="M21.7374 104.37C21.7374 104.37 21.8023 101.604 19.4992 102.422C18.7113 102.717 18.0416 103.262 17.5929 103.975C16.8781 105.074 15.8995 107.169 15.7441 110.549C15.7441 110.549 18.4699 108.542 20.1667 108.073C22.0804 107.544 23.857 105.481 21.7374 104.37Z" fill="#8B9D36"/>
<path d="M21.7374 104.37C21.3937 104.484 21.0714 104.655 20.7834 104.875C20.4873 105.08 20.2063 105.307 19.9428 105.553C19.4102 106.042 18.9091 106.564 18.4424 107.116C17.9626 107.659 17.5161 108.231 17.0707 108.806L15.7441 110.549C15.913 110.224 16.1001 109.909 16.2781 109.588C16.4659 109.273 16.672 108.97 16.8685 108.66C17.2818 108.052 17.7255 107.466 18.1977 106.903C18.6834 106.347 19.2135 105.832 19.7828 105.363C20.3395 104.871 21.0122 104.529 21.7374 104.37Z" fill="#5E7C24"/>
<path d="M39.1199 141.228C39.1199 141.228 39.887 138.575 41.8342 140.075C42.4961 140.602 42.9696 141.33 43.1836 142.149C43.5348 143.419 43.8383 145.72 42.9734 148.986C42.9734 148.986 40.98 146.223 39.5053 145.245C37.8422 144.142 36.7694 141.622 39.1199 141.228Z" fill="#8B9D36"/>
<path d="M39.1201 141.228C39.7634 141.607 40.3009 142.142 40.6832 142.784C41.0843 143.408 41.4345 144.064 41.7302 144.745C42.0111 145.428 42.2577 146.126 42.4691 146.834C42.5633 147.191 42.6686 147.544 42.7532 147.903C42.8264 148.265 42.9102 148.623 42.9735 148.986L42.2322 146.912C41.9803 146.225 41.7267 145.54 41.4326 144.873C41.1538 144.201 40.8333 143.548 40.4728 142.916C40.2958 142.6 40.0965 142.296 39.8764 142.008C39.6684 141.708 39.4129 141.445 39.1201 141.228Z" fill="#5E7C24"/>
<path d="M39.8121 113.18C39.8121 113.18 30.1169 104.879 27.6045 153.377" stroke="#50661A" stroke-width="0.64428" stroke-miterlimit="10"/>
<path d="M30.6091 113.18C30.6091 113.18 25.7859 145.166 28.676 153.377" stroke="#50661A" stroke-width="0.64428" stroke-miterlimit="10"/>
<path d="M26.8371 153.377C26.8371 153.377 23.2527 138.963 18.9268 141.228" stroke="#50661A" stroke-width="0.64428" stroke-miterlimit="10"/>
<path d="M27.3524 149.079C27.3524 149.079 30.4763 95.5264 21.7373 104.37" stroke="#50661A" stroke-width="0.64428" stroke-miterlimit="10"/>
<path d="M31.2095 153.377C31.2095 153.377 34.7939 138.963 39.1198 141.228" stroke="#50661A" stroke-width="0.64428" stroke-miterlimit="10"/>
<path d="M17.6909 134.389C17.6909 134.389 24.4759 132.721 28.1752 153.042" stroke="#50661A" stroke-width="0.64428" stroke-miterlimit="10"/>
<path d="M19.9258 121.798C19.9258 121.798 21.8915 123.112 29.3298 153.042" stroke="#50661A" stroke-width="0.64428" stroke-miterlimit="10"/>
<path d="M38.5057 128.589C38.5057 128.589 31.1588 140.244 30.4761 153.377" stroke="#50661A" stroke-width="0.64428" stroke-miterlimit="10"/>
<path d="M18.9654 149.937V152.634C18.963 152.882 19.0589 153.12 19.232 153.297C19.4052 153.474 19.6414 153.575 19.8887 153.578H38.388C38.6353 153.575 38.8715 153.474 39.0447 153.297C39.2178 153.12 39.3138 152.882 39.3113 152.634V150.149C39.3137 149.903 39.2192 149.666 39.0483 149.489C38.8773 149.312 38.6438 149.21 38.3984 149.205L19.899 148.994C19.7757 148.993 19.6536 149.018 19.5397 149.065C19.4258 149.113 19.3225 149.182 19.2356 149.27C19.1488 149.358 19.0802 149.462 19.0338 149.577C18.9874 149.691 18.9642 149.814 18.9654 149.937Z" fill="#9857BD"/>
<path d="M19.8486 153.577L20.5065 167.495H37.3353L38.4286 153.577H19.8486Z" fill="#CB97E7"/>
<path d="M35.4773 127.795C35.503 126.525 38.1234 128.829 38.1234 128.829C36.5627 121.809 31.5758 124.737 31.5758 124.737C27.0159 119.578 24.0553 123.257 24.0553 123.257C26.1135 122.551 26.7847 123.864 26.7847 123.864C25.556 123.691 24.3049 123.941 23.2363 124.573C20.8377 126.568 21.6245 131.34 21.6245 131.34C22.4144 130.211 24.8869 129.666 26.1392 129.581C26.926 129.528 26.7879 129.915 26.5761 130.211C26.4339 130.402 26.2506 130.559 26.0398 130.67C24.7875 131.324 23.5806 132.062 22.4272 132.879C21.2519 133.804 24.1227 138.264 24.1227 138.264C24.7328 137.355 26.4572 136.751 26.4572 136.751C28.3165 136.591 24.6396 139.318 24.6396 139.318L26.7686 142.672L29.0325 141.828L28.5926 140.48C28.6793 139.173 29.3858 140.959 29.7165 141.241C30.0472 141.526 32.9372 138.927 32.9372 138.927C32.9372 138.927 31.2611 132.528 32.568 133.243C33.8782 133.955 34.6231 136.856 34.9282 137.004C35.1562 137.116 36.4247 134.933 37.054 133.821C37.282 133.423 37.4294 132.985 37.4878 132.531C37.5463 132.076 37.5145 131.614 37.3944 131.172C36.974 129.935 36.3234 128.79 35.4773 127.795ZM28.1655 127.743C27.3305 128.435 26.0461 128.051 25.8407 127.536C25.6318 127.024 26.2709 126.003 27.2278 125.354C28.1238 124.743 29.1545 125.199 29.3601 125.715C29.5688 126.227 29.0936 126.968 28.1655 127.743Z" fill="#5E7C24"/>
<path d="M31.5751 124.737C31.7413 125.502 31.85 126.278 31.9002 127.06C31.9157 127.847 31.8458 128.634 31.6918 129.407C31.535 130.176 31.3284 130.934 31.0734 131.677C30.8325 132.418 30.5831 133.161 30.3042 133.893C29.7358 135.35 29.0717 136.769 28.3165 138.139C27.9478 138.819 27.6438 139.533 27.4086 140.271C27.1632 141.009 26.9723 141.764 26.8374 142.531C26.9763 140.964 27.4023 139.437 28.094 138.026C28.8112 136.647 29.4483 135.228 30.0021 133.776C30.2878 133.054 30.5439 132.322 30.7938 131.584C31.0456 130.848 31.2718 130.107 31.4488 129.356C31.6278 128.604 31.7262 127.835 31.7422 127.062C31.7347 126.284 31.6789 125.508 31.5751 124.737Z" fill="#50661A"/>
<path d="M31.7944 127.855C32.2511 128.164 32.6625 128.534 33.0168 128.956C33.3754 129.374 33.7005 129.82 33.9889 130.289C34.2755 130.758 34.5298 131.246 34.7501 131.75C34.9705 132.252 35.1528 132.77 35.2954 133.3L34.5229 131.861C34.2599 131.388 33.9991 130.916 33.7131 130.46C33.432 130 33.1342 129.552 32.8197 129.114C32.5052 128.673 32.1628 128.253 31.7944 127.855Z" fill="#50661A"/>
<path d="M29.5288 135.356C29.867 135.686 30.137 136.079 30.3233 136.513C30.419 136.732 30.4892 136.961 30.5324 137.196C30.5896 137.438 30.5543 137.693 30.4333 137.91C30.4288 137.686 30.3793 137.465 30.2878 137.261C30.2039 137.055 30.1177 136.849 30.0263 136.644C29.8329 136.226 29.6667 135.796 29.5288 135.356Z" fill="#50661A"/>
<path d="M30.7926 132.051L29.1467 132.675C28.6032 132.889 28.0621 133.106 27.5356 133.352C27.0053 133.586 26.4895 133.852 25.9913 134.149C25.4875 134.441 25.022 134.795 24.6055 135.203C24.9349 134.704 25.3584 134.274 25.8521 133.937C26.3381 133.593 26.8572 133.297 27.4016 133.056C28.4798 132.565 29.6211 132.227 30.7926 132.051Z" fill="#50661A"/>
<path d="M47.1053 119.86C47.1053 119.86 50.8644 114.233 55.5656 120.878C55.5656 120.878 51.8837 119.765 52.4236 121.122C53.7325 121.753 54.9029 122.639 55.8665 123.728C56.5178 124.577 56.8163 125.645 56.6995 126.71C56.5566 128.205 56.2387 131.159 55.9592 131.157C55.5849 131.154 53.539 128.458 51.894 128.366C50.2489 128.274 54.7934 134.201 54.7934 134.201C54.7934 134.201 53.0186 138.416 52.5573 138.284C52.0959 138.152 50.5839 136.621 51.0775 138.046L52.1223 139.253L50.202 141.29L46.5517 138.816C46.5517 138.816 49.0692 134.067 47.2561 135.179C47.2561 135.179 45.7738 136.69 45.5594 137.964C45.5594 137.964 40.6672 134.693 41.4459 133.116C42.2472 131.677 43.1394 130.29 44.117 128.964C44.314 128.699 44.4421 128.39 44.4897 128.063C44.5385 127.683 44.4422 127.338 43.7471 127.745C42.5113 128.469 40.2486 130.297 39.9486 131.894C39.9486 131.894 37.0276 127.239 38.5763 123.91C39.3587 122.719 40.5138 121.823 41.8601 121.361C41.8601 121.361 40.5949 120.311 38.8197 122.102C38.8197 122.102 40.1881 116.706 47.1053 119.86Z" fill="#C4CE6E"/>
<path d="M47.105 119.86C47.7621 121.555 48.3052 123.292 48.7308 125.059C49.1718 126.823 49.5131 128.612 49.7804 130.411C50.0402 132.212 50.2084 134.024 50.2844 135.842C50.3627 137.658 50.3351 139.477 50.2016 141.29C50.1874 139.474 50.1783 137.662 50.0353 135.856C49.9211 134.049 49.7293 132.249 49.4598 130.458C49.2206 128.663 48.8763 126.885 48.4891 125.116C48.0997 123.348 47.6504 121.591 47.105 119.86Z" fill="#8B9D36"/>
<path d="M48.0433 122.855C47.7391 123.235 47.4674 123.639 47.2309 124.063C46.9948 124.483 46.7819 124.916 46.5932 125.359C46.4038 125.802 46.2389 126.256 46.0863 126.716C45.9351 127.177 45.8 127.645 45.6562 128.118C45.6713 127.623 45.7336 127.131 45.8423 126.649C45.951 126.164 46.1026 125.689 46.2952 125.231C46.4917 124.773 46.734 124.337 47.0185 123.928C47.2977 123.515 47.6442 123.153 48.0433 122.855Z" fill="#8B9D36"/>
<path d="M49.6074 130.308C50.1053 130.42 50.5746 130.634 50.9863 130.936C51.398 131.239 51.7431 131.622 52.0002 132.064C52.1721 132.357 52.2942 132.676 52.3613 133.008C52.017 132.458 51.6093 131.95 51.1465 131.495C50.6767 131.046 50.1608 130.648 49.6074 130.308Z" fill="#8B9D36"/>
<path d="M208.02 155.469L208.615 161.412L198.315 166.455H214.131V155.469H208.02Z" fill="#F9977A"/>
<path d="M191.047 155.469L191.641 161.412L181.342 166.455H197.157V155.469H191.047Z" fill="#F9977A"/>
<path d="M207.192 158.519H214.158C214.345 158.519 214.53 158.482 214.702 158.411C214.874 158.339 215.031 158.234 215.163 158.102C215.294 157.97 215.399 157.813 215.47 157.64C215.542 157.468 215.579 157.283 215.579 157.096V132.272C215.579 127.422 215.034 122.587 213.956 117.858C213.762 117.01 213.685 116.14 213.727 115.271C214.03 108.879 215.164 80.8468 211.984 75.7478L191.641 74.2427L205.792 157.335C205.848 157.666 206.02 157.967 206.276 158.184C206.532 158.4 206.857 158.519 207.192 158.519Z" fill="#C67A56"/>
<path d="M185.017 73.186C185.017 73.186 183.948 90.5354 183.948 94.6144V118.683C183.948 119.675 183.996 120.664 184.093 121.652L187.655 157.846C187.69 158.197 187.854 158.523 188.115 158.76C188.376 158.998 188.716 159.129 189.069 159.129H197.277C197.472 159.129 197.666 159.089 197.845 159.011C198.023 158.933 198.184 158.818 198.317 158.675C198.45 158.532 198.552 158.363 198.617 158.178C198.682 157.994 198.708 157.798 198.694 157.603L196.476 127.045C196.272 124.237 196.461 121.414 197.036 118.659L205.993 75.7479L185.017 73.186Z" fill="#C67A56"/>
<path d="M169.253 45.8006C169.253 45.8006 169.178 43.8427 166.174 40.7428C163.169 37.6429 160.475 35.5243 162.039 38.1364L163.264 40.1071C163.264 40.1071 160.032 38.8509 158.171 37.9335C157.682 37.6823 157.124 37.5954 156.582 37.6854C156.039 37.7755 155.54 38.0378 155.157 38.4336C154.456 39.1913 154.477 40.0194 156.411 41.4891C158.194 42.9116 160.166 44.0792 162.269 44.9585C162.571 45.0749 162.826 45.2883 162.994 45.5653L165.155 47.3279L169.253 45.8006Z" fill="#F9977A"/>
<path d="M165.155 41.0219C164.811 40.9415 164.478 40.82 164.162 40.6601C163.845 40.5069 163.544 40.3215 163.264 40.1069C163.443 40.1249 163.619 40.1637 163.789 40.2227C163.957 40.2774 164.12 40.3442 164.279 40.4225C164.6 40.576 164.895 40.7781 165.155 41.0219Z" fill="#DD765E"/>
<path d="M160.69 40.4222C160.28 40.2838 159.878 40.1211 159.487 39.935C159.093 39.7559 158.712 39.5519 158.336 39.3364C157.96 39.1204 157.597 38.8823 157.25 38.6232C156.897 38.3686 156.573 38.0762 156.284 37.751C156.993 38.2469 157.727 38.6773 158.469 39.1075C159.208 39.5423 159.957 39.9593 160.69 40.4222Z" fill="#DD765E"/>
<path d="M159.887 41.4198C159.43 41.2923 158.982 41.1341 158.547 40.9463C158.109 40.7629 157.682 40.5535 157.268 40.3193C156.851 40.0874 156.455 39.8186 156.086 39.516C155.702 39.2261 155.385 38.8569 155.157 38.4336C155.461 38.7895 155.816 39.0994 156.209 39.3537C156.594 39.6145 156.989 39.8629 157.399 40.0891C158.211 40.5548 159.05 40.974 159.887 41.4198Z" fill="#DD765E"/>
<path d="M158.919 42.1681C158.534 42.0715 158.157 41.9452 157.791 41.7903C157.424 41.6393 157.066 41.4669 156.719 41.274C156.016 40.8976 155.382 40.4046 154.843 39.8159C155.175 40.0346 155.499 40.2523 155.834 40.4554C156.172 40.6529 156.505 40.8554 156.848 41.0429L158.919 42.1681Z" fill="#DD765E"/>
<path d="M192.694 35.8574C192.694 35.8574 191.067 36.5867 189.805 37.2349C188.056 38.1334 185.34 41.2908 182.162 49.177L180.05 54.4176C180.05 54.4176 173.71 47.0014 168.225 42.2978L162.811 46.6997L175.341 61.1629C176.152 62.3244 177.228 63.2745 178.48 63.9335C181.341 65.3985 184.263 64.9155 185.866 61.936C188.375 57.2755 191.357 50.1796 191.643 48.2024L192.694 35.8574Z" fill="#FFBA55"/>
<path d="M180.07 54.5112C179.983 55.34 179.843 56.1198 179.811 56.9006C179.784 57.2854 179.794 57.672 179.841 58.055C179.893 58.4469 180.007 58.8281 180.178 59.1847C179.834 58.9235 179.581 58.559 179.458 58.1443C179.331 57.7339 179.281 57.3035 179.309 56.8747C179.332 56.4546 179.409 56.0393 179.538 55.6389C179.658 55.2384 179.837 54.8582 180.07 54.5112Z" fill="#E6952A"/>
<path d="M204.402 79.1104C204.402 79.1104 204.402 87.6889 213.848 85.4442L213.326 77.7222L204.402 79.1104Z" fill="#A3862B"/>
<path d="M179.754 166.995V166.959C179.754 166.681 179.831 166.409 179.977 166.172C180.122 165.935 180.33 165.744 180.578 165.619L191.268 160.22C191.373 160.167 191.493 160.153 191.607 160.18C191.721 160.206 191.822 160.272 191.892 160.366L193.982 163.153C194.056 163.252 194.164 163.32 194.285 163.344C194.406 163.367 194.532 163.345 194.638 163.282L197.09 161.807C197.166 161.761 197.252 161.737 197.341 161.736C197.429 161.735 197.516 161.757 197.593 161.801C197.67 161.844 197.734 161.908 197.778 161.984C197.823 162.06 197.846 162.147 197.846 162.236V166.995C197.846 167.128 197.794 167.255 197.7 167.349C197.606 167.443 197.479 167.496 197.347 167.496H180.254C180.121 167.496 179.994 167.443 179.901 167.349C179.807 167.255 179.754 167.128 179.754 166.995Z" fill="#5D1115"/>
<path d="M196.728 166.995V166.959C196.728 166.681 196.805 166.409 196.95 166.172C197.096 165.935 197.304 165.744 197.552 165.619L208.242 160.22C208.346 160.167 208.466 160.153 208.58 160.18C208.694 160.206 208.795 160.272 208.866 160.366L210.955 163.153C211.029 163.252 211.137 163.32 211.259 163.344C211.38 163.367 211.505 163.345 211.611 163.282L214.064 161.807C214.14 161.761 214.226 161.737 214.314 161.736C214.403 161.735 214.49 161.757 214.567 161.801C214.643 161.844 214.707 161.908 214.752 161.984C214.796 162.06 214.82 162.147 214.82 162.236V166.995C214.82 167.128 214.767 167.255 214.674 167.349C214.58 167.443 214.453 167.496 214.321 167.496H197.227C197.095 167.496 196.968 167.443 196.874 167.349C196.781 167.255 196.728 167.128 196.728 166.995Z" fill="#5D1115"/>
<path d="M199.162 15.6238C197.718 15.4035 196.243 15.5302 194.857 15.9936C194.208 16.2243 191.833 17.0681 190.675 19.3215C190.235 20.1773 190.136 21.2068 189.937 23.2658C189.813 24.5519 189.319 25.473 189.319 27.0416C189.345 28.3125 189.553 29.5731 189.937 30.7846C190.513 32.6808 190.142 33.7581 190.429 34.1126C191.586 35.5411 194.066 34.2206 194.119 36.0847C194.152 37.2357 193.422 37.9643 194.381 38.9967C195.57 40.2769 200.086 39.7924 201.745 38.9197C201.972 38.8007 205.291 37.0112 205.067 34.9754C204.947 33.8878 203.931 33.7753 203.221 32.1404C202.767 31.007 202.639 29.7686 202.852 28.5659C203.172 26.1862 204.369 25.8959 205.313 23.0193C205.569 22.2971 205.635 21.5211 205.506 20.7657C205.377 20.0103 205.056 19.3008 204.575 18.7052C203.187 17.0739 201.271 15.9832 199.162 15.6238Z" fill="#F9977A"/>
<path d="M189.928 25.6818C190.194 25.6818 190.41 25.4127 190.41 25.0809C190.41 24.749 190.194 24.48 189.928 24.48C189.662 24.48 189.446 24.749 189.446 25.0809C189.446 25.4127 189.662 25.6818 189.928 25.6818Z" fill="#0A0709"/>
<path d="M194.982 25.8854C195.248 25.8854 195.464 25.6163 195.464 25.2845C195.464 24.9526 195.248 24.6836 194.982 24.6836C194.715 24.6836 194.5 24.9526 194.5 25.2845C194.5 25.6163 194.715 25.8854 194.982 25.8854Z" fill="#0A0709"/>
<path d="M192.209 23.9703C192.273 23.9703 192.336 23.95 192.388 23.9122C192.44 23.8744 192.478 23.8212 192.498 23.76C192.518 23.6989 192.518 23.6329 192.499 23.5717C192.479 23.5105 192.44 23.4571 192.388 23.4191C191.874 23.0324 191.257 22.8081 190.615 22.7748C189.973 22.7416 189.336 22.9009 188.784 23.2325C188.717 23.2775 188.671 23.3473 188.655 23.4267C188.64 23.506 188.656 23.5884 188.701 23.6556C188.746 23.7228 188.815 23.7694 188.895 23.7851C188.974 23.8008 189.056 23.7844 189.123 23.7394C189.568 23.471 190.084 23.3439 190.603 23.3746C191.122 23.4053 191.619 23.5925 192.029 23.9115C192.081 23.9498 192.144 23.9703 192.209 23.9703Z" fill="#1E1D22"/>
<path d="M197.211 24.2189C197.275 24.2189 197.338 24.1986 197.39 24.1608C197.442 24.123 197.48 24.0698 197.5 24.0086C197.52 23.9475 197.52 23.8815 197.501 23.8203C197.481 23.7591 197.443 23.7057 197.391 23.6677C196.877 23.281 196.259 23.0567 195.617 23.0234C194.975 22.9901 194.338 23.1494 193.787 23.4809C193.72 23.5259 193.673 23.5957 193.658 23.6751C193.642 23.7544 193.658 23.8368 193.703 23.904C193.748 23.9712 193.818 24.0178 193.897 24.0335C193.976 24.0492 194.058 24.0328 194.126 23.9878C194.571 23.7193 195.087 23.5921 195.605 23.6229C196.124 23.6536 196.621 23.8409 197.032 24.1601C197.084 24.1984 197.147 24.219 197.211 24.2189Z" fill="#1E1D22"/>
<path d="M193.275 78.1248C193.719 78.1248 194.078 77.7643 194.078 77.3197C194.078 76.8751 193.719 76.5146 193.275 76.5146C192.831 76.5146 192.472 76.8751 192.472 77.3197C192.472 77.7643 192.831 78.1248 193.275 78.1248Z" fill="#5D1115"/>
<path d="M192.132 24.3325C192.258 24.8383 192.215 25.3714 192.011 25.8507C191.828 26.3336 191.579 26.7884 191.27 27.2019C191.112 27.4097 190.882 27.5652 190.898 27.7695C190.924 27.9986 191.041 28.2076 191.221 28.3506C191.423 28.4925 191.651 28.593 191.891 28.6464C192.132 28.6999 192.381 28.7052 192.624 28.6622C192.375 28.7453 192.111 28.7714 191.851 28.7384C191.591 28.7054 191.342 28.6142 191.123 28.4716C191.008 28.3915 190.912 28.2874 190.841 28.1666C190.77 28.0457 190.727 27.9109 190.713 27.7715C190.711 27.6209 190.767 27.4753 190.869 27.3645L191.112 27.0738C191.416 26.678 191.671 26.2461 191.869 25.7879C192.089 25.3364 192.18 24.8327 192.132 24.3325Z" fill="#DD765E"/>
<path d="M201.04 24.5361C201.225 24.5274 201.409 24.5594 201.58 24.6297C201.751 24.7 201.904 24.807 202.03 24.9432C202.157 25.075 202.267 25.222 202.358 25.3808C202.445 25.5392 202.511 25.709 202.552 25.8853C202.35 25.6039 202.128 25.3373 201.888 25.0877C201.772 24.9658 201.642 24.8575 201.502 24.7649C201.359 24.6672 201.204 24.5901 201.04 24.5361Z" fill="#DD765E"/>
<path d="M201.432 27.042C201.245 26.6901 201.18 26.2862 201.246 25.8931C201.311 25.5 201.505 25.1397 201.796 24.8682C201.719 25.0489 201.634 25.2151 201.578 25.393C201.514 25.5652 201.469 25.744 201.444 25.9261C201.384 26.2953 201.38 26.6715 201.432 27.042Z" fill="#DD765E"/>
<path d="M184.796 64.0605C184.608 62.2706 184.554 60.4691 184.636 58.6711C184.684 56.8693 184.909 55.0767 185.309 53.3193C185.27 55.1216 185.206 56.9022 185.138 58.6914C185.06 60.4791 184.984 62.2666 184.796 64.0605Z" fill="#E6952A"/>
<path d="M194.631 30.7861C194.631 30.7861 192.732 32.5611 191.034 30.7861H194.631Z" fill="#0A0709"/>
<path d="M196.538 25.2107C196.121 25.0019 195.673 24.8622 195.212 24.7972C194.986 24.7602 194.755 24.7525 194.527 24.7744C194.293 24.7938 194.061 24.8314 193.833 24.8871C194.039 24.7569 194.267 24.6662 194.506 24.6195C194.747 24.5718 194.995 24.5639 195.239 24.596C195.726 24.6595 196.18 24.8745 196.538 25.2107Z" fill="#1E1D22"/>
<path d="M191.571 25.0076C191.154 24.7987 190.706 24.6591 190.245 24.5941C190.018 24.5571 189.788 24.5494 189.56 24.5713C189.326 24.5907 189.094 24.6284 188.866 24.684C189.072 24.5538 189.3 24.4631 189.538 24.4164C189.78 24.3687 190.028 24.3607 190.272 24.3929C190.758 24.4564 191.213 24.6714 191.571 25.0076Z" fill="#1E1D22"/>
<path d="M184.754 75.6206C185.746 76.2612 186.818 76.7686 187.943 77.1298C189.055 77.513 190.193 77.8202 191.347 78.0495C193.654 78.522 195.999 78.7903 198.353 78.8512C199.528 78.9404 200.708 78.8947 201.886 78.9122C203.065 78.8894 204.242 78.8104 205.422 78.7755C206.599 78.6811 207.778 78.6035 208.955 78.495C210.131 78.3725 211.305 78.2326 212.486 78.1248C211.323 78.3456 210.153 78.5344 208.985 78.7404C207.81 78.8991 206.63 79.0206 205.451 79.1624C204.269 79.2588 203.083 79.3242 201.896 79.3711C200.709 79.3687 199.52 79.4314 198.332 79.3545C195.951 79.2738 193.584 78.9629 191.263 78.4262C188.967 77.8546 186.638 77.089 184.754 75.6206Z" fill="#5D1115"/>
<path d="M192.39 78.4707C192.979 81.3254 193.513 84.1893 194.04 87.0546C194.567 89.9197 195.051 92.7924 195.558 95.661C196.025 98.5364 196.514 101.408 196.961 104.287L197.622 108.607C197.824 110.05 198.043 111.49 198.231 112.936C197.931 111.509 197.663 110.077 197.379 108.648L196.58 104.352C196.053 101.486 195.568 98.6141 195.062 95.7453C194.596 92.8697 194.106 89.9983 193.66 87.1192C193.213 84.2404 192.774 81.3602 192.39 78.4707Z" fill="#5D1115"/>
<path d="M188.325 74.9043C188.501 75.4224 188.586 75.9672 188.577 76.5144C188.587 77.0617 188.502 77.6067 188.325 78.1246C188.148 77.6067 188.063 77.0617 188.074 76.5144C188.064 75.9672 188.149 75.4224 188.325 74.9043Z" fill="#5D1115"/>
<path d="M200.604 76.2173C200.85 76.7951 201.008 77.4069 201.072 78.0319C201.157 78.6545 201.146 79.2865 201.04 79.9059C200.793 79.3284 200.635 78.7165 200.572 78.0913C200.489 77.4686 200.499 76.8368 200.604 76.2173Z" fill="#5D1115"/>
<path d="M194.252 78.7686C194.584 79.8998 194.855 81.0483 195.062 82.209C195.275 83.3655 195.45 84.528 195.577 85.6986L195.589 85.8182L195.507 85.8737C194.959 86.2405 194.399 86.591 193.821 86.9185C194.294 86.4525 194.785 86.0096 195.288 85.5828L195.218 85.7578C194.963 84.6084 194.756 83.4511 194.586 82.2877C194.411 81.1216 194.3 79.9468 194.252 78.7686Z" fill="#5D1115"/>
<path d="M212.486 97.3506C212.465 98.2038 212.359 99.0527 212.169 99.8846C211.989 100.723 211.732 101.542 211.401 102.333C211.072 103.131 210.642 103.884 210.122 104.572C209.601 105.261 208.936 105.827 208.173 106.231C208.802 105.683 209.351 105.047 209.801 104.344C210.243 103.642 210.623 102.904 210.938 102.137C211.262 101.367 211.546 100.582 211.791 99.7836C212.036 98.9822 212.278 98.1749 212.486 97.3506Z" fill="#5D1115"/>
<path d="M212.486 103.206C212.345 103.806 212.136 104.388 211.862 104.94C211.593 105.495 211.278 106.027 210.92 106.529C210.219 107.555 209.275 108.392 208.173 108.964C208.606 108.523 209.027 108.102 209.413 107.644C209.794 107.184 210.172 106.725 210.512 106.234C211.213 105.266 211.839 104.249 212.486 103.206Z" fill="#5D1115"/>
<path d="M194.105 126.555C194.084 127.408 193.978 128.257 193.788 129.089C193.608 129.927 193.351 130.747 193.02 131.538C192.691 132.336 192.261 133.088 191.741 133.776C191.22 134.465 190.555 135.032 189.792 135.436C190.422 134.887 190.97 134.252 191.421 133.548C191.862 132.847 192.242 132.108 192.557 131.341C192.881 130.572 193.165 129.787 193.41 128.988C193.655 128.187 193.897 127.379 194.105 126.555Z" fill="#5D1115"/>
<path d="M194.105 132.411C193.964 133.011 193.755 133.592 193.481 134.144C193.212 134.7 192.897 135.232 192.54 135.734C191.838 136.76 190.894 137.596 189.792 138.169C190.225 137.728 190.646 137.306 191.032 136.849C191.413 136.389 191.791 135.93 192.131 135.439C192.832 134.471 193.458 133.454 194.105 132.411Z" fill="#5D1115"/>
<path d="M202.717 85.7285C202.6 86.7181 202.591 87.7177 202.69 88.7093C202.741 89.6641 203.112 90.5737 203.743 91.2912C204.392 91.9524 205.397 92.1019 206.355 92.0435C207.344 91.946 208.319 91.7421 209.264 91.4353C208.373 91.9318 207.402 92.2701 206.395 92.4351C205.874 92.5135 205.343 92.5025 204.825 92.4026C204.287 92.2929 203.79 92.0332 203.393 91.6534C202.677 90.8541 202.287 89.8145 202.3 88.7406C202.264 87.7199 202.406 86.7008 202.717 85.7285Z" fill="#5D1115"/>
<path d="M194.888 36.241C194.888 36.241 196.033 42.0444 204.151 33.5396L211.984 38.396C213.757 39.526 215.179 41.1306 216.089 43.0285C219.185 49.5938 220.997 56.6928 221.426 63.9415C221.426 63.9415 222.533 71.2463 211.709 85.6513C211.709 85.6513 206.051 86.7444 204.698 80.7047L208.173 75.8976C208.173 75.8976 189.814 77.6232 185.017 73.1859C185.017 73.1859 182.506 41.7368 193.136 35.4687L194.888 36.241Z" fill="#FFBA55"/>
<path d="M208.511 49.52C208.727 50.8895 208.927 52.2607 209.112 53.6336C209.29 55.0072 209.485 56.3789 209.649 57.7542L210.138 61.8802C210.309 63.2547 210.434 64.6343 210.584 66.0111L210.587 66.0338L210.585 66.0529C210.442 67.7476 210.183 69.4305 209.81 71.0896C209.471 72.7556 208.921 74.3713 208.173 75.8975C208.777 74.3226 209.22 72.6904 209.496 71.0261C209.646 70.1974 209.765 69.3635 209.865 68.5279C209.975 67.6946 210.068 66.854 210.127 66.0207L210.128 66.0623C209.97 64.6863 209.788 63.313 209.651 61.9348L209.218 57.8026C209.074 56.425 208.962 55.0439 208.833 53.6649C208.711 52.2849 208.604 50.9033 208.511 49.52Z" fill="#E6952A"/>
<path d="M206.576 50.876C207.123 51.3326 207.607 51.8602 208.015 52.4448C208.441 53.0169 208.787 53.6438 209.046 54.3086C208.498 53.8527 208.014 53.3249 207.607 52.7396C207.182 52.167 206.836 51.5403 206.576 50.876Z" fill="#E6952A"/>
<path d="M210.356 66.037C210.917 66.0312 211.415 66.089 211.913 66.1092C212.162 66.1231 212.405 66.1206 212.654 66.1182C212.902 66.1039 213.148 66.0767 213.431 66.037C213.246 66.2564 213.002 66.4186 212.728 66.5048C212.457 66.5879 212.173 66.6244 211.89 66.6127C211.612 66.5967 211.339 66.5413 211.077 66.448C210.812 66.3596 210.567 66.22 210.356 66.037Z" fill="#E6952A"/>
<path d="M196.629 38.0757C196.128 39.59 195.647 41.1093 195.223 42.6452C194.776 44.1742 194.365 45.7123 193.988 47.2595C193.229 50.351 192.565 53.465 192.068 56.607C191.56 59.7465 191.227 62.9118 191.07 66.0883C191.043 67.6769 190.969 69.2686 191.073 70.857C191.068 72.4529 191.309 74.0278 191.439 75.6204C190.877 72.4714 190.623 69.2748 190.683 66.0764C190.782 62.8779 191.079 59.6887 191.572 56.5271C192.113 53.3754 192.772 50.2442 193.615 47.162C194.442 44.0768 195.448 41.0428 196.629 38.0757Z" fill="#E6952A"/>
<path d="M193.135 35.4686C192.948 36.3103 192.778 37.1552 192.668 38.006C192.524 38.8371 192.514 39.6862 192.639 40.5204C192.729 40.9232 192.962 41.2037 193.313 41.1041C193.692 40.9876 194.042 40.7939 194.342 40.5353C194.993 39.9925 195.597 39.3963 196.148 38.7527L196.518 38.3382L196.559 38.9025C196.59 39.4815 196.74 40.0479 197 40.566C197.111 40.81 197.282 41.022 197.496 41.1823C197.711 41.3425 197.962 41.4458 198.228 41.4827C198.799 41.5014 199.364 41.3627 199.862 41.0816C200.396 40.8086 200.901 40.4817 201.369 40.1058C203.255 38.5465 204.998 36.8205 206.576 34.9487C205.846 35.9381 205.094 36.9153 204.276 37.839C203.464 38.7744 202.58 39.6453 201.633 40.444C201.148 40.8448 200.623 41.195 200.067 41.4889C199.494 41.8201 198.84 41.9844 198.178 41.9634C197.832 41.9241 197.501 41.7966 197.218 41.5929C196.935 41.3893 196.709 41.1163 196.561 40.8001C196.273 40.2126 196.112 39.571 196.088 38.9171L196.499 39.0669C195.92 39.7233 195.287 40.3297 194.606 40.8799C194.25 41.1809 193.826 41.3916 193.372 41.4942C193.237 41.5219 193.098 41.5151 192.967 41.4744C192.836 41.4337 192.717 41.3605 192.622 41.2615C192.456 41.0746 192.349 40.8437 192.311 40.5968C192.238 40.1561 192.225 39.7074 192.274 39.2633C192.311 38.8294 192.375 38.3983 192.466 37.9722C192.638 37.1248 192.861 36.2887 193.135 35.4686Z" fill="#E6952A"/>
<path d="M194.596 48.9653C194.88 48.9653 195.11 48.7347 195.11 48.4502C195.11 48.1657 194.88 47.9351 194.596 47.9351C194.312 47.9351 194.082 48.1657 194.082 48.4502C194.082 48.7347 194.312 48.9653 194.596 48.9653Z" fill="#5D1115"/>
<path d="M196.139 42.9844C196.422 42.9844 196.653 42.7537 196.653 42.4692C196.653 42.1847 196.422 41.9541 196.139 41.9541C195.855 41.9541 195.625 42.1847 195.625 42.4692C195.625 42.7537 195.855 42.9844 196.139 42.9844Z" fill="#5D1115"/>
<path d="M193.315 55.9775C193.599 55.9775 193.829 55.7469 193.829 55.4624C193.829 55.1779 193.599 54.9473 193.315 54.9473C193.031 54.9473 192.801 55.1779 192.801 55.4624C192.801 55.7469 193.031 55.9775 193.315 55.9775Z" fill="#5D1115"/>
<path d="M192.262 63.3769C192.546 63.3769 192.776 63.1463 192.776 62.8618C192.776 62.5773 192.546 62.3467 192.262 62.3467C191.978 62.3467 191.748 62.5773 191.748 62.8618C191.748 63.1463 191.978 63.3769 192.262 63.3769Z" fill="#5D1115"/>
<path d="M191.939 71.48C192.223 71.48 192.453 71.2493 192.453 70.9648C192.453 70.6803 192.223 70.4497 191.939 70.4497C191.655 70.4497 191.425 70.6803 191.425 70.9648C191.425 71.2493 191.655 71.48 191.939 71.48Z" fill="#5D1115"/>
<path d="M193.805 35.9944C193.805 35.9944 197.209 36.0575 199.156 33.3458C200.084 32.053 200.086 29.4376 199.995 27.9161C199.954 27.2342 200.061 26.5514 200.309 25.9151C200.653 25.0359 201.075 23.8379 201.934 23.7582C202.566 23.6994 202.82 23.5321 203.048 24.1437C203.424 25.1554 202.77 26.2714 202.315 27.0488C201.664 28.1611 201.11 28.4039 201.1 29.1735C201.092 29.7606 202.031 30.7373 202.419 30.7803C203.077 30.8531 203.374 28.8547 205.137 25.5215C206.251 23.4167 206.763 23.0219 206.892 21.708C206.937 21.2414 207.127 19.31 205.967 18.1867C205.429 17.6656 205.123 17.8244 202.783 16.8316C202.134 16.5734 201.498 16.28 200.881 15.9527C199.017 14.9326 199.059 14.4079 197.968 14.0972C196.983 13.8167 196.924 14.2381 195.043 14.1265C193.23 14.0189 193.069 13.6143 192.23 13.8539C190.775 14.2699 190.076 15.8279 189.888 16.2465C189.513 16.9712 189.32 17.7765 189.326 18.5927C189.406 19.4208 189.712 20.2108 190.211 20.8761C190.447 21.1174 191.406 19.7261 191.929 19.2027C192.441 18.6899 193.023 18.8999 193.816 18.9493C194.59 18.9975 194.547 19.4801 195.691 19.9039C196.099 20.0549 197.732 19.3217 198.259 20.2274C198.821 21.1925 199.257 21.3094 198.994 22.2074C198.829 22.7684 198.931 23.4576 199.135 24.8362C199.281 25.8255 198.482 29.2811 198.482 29.2811C198.412 29.4245 198.314 29.5525 198.195 29.6578C198.075 29.7631 197.935 29.8436 197.784 29.8946C197.633 29.9456 197.474 29.9661 197.315 29.955C197.156 29.9438 197.001 29.9012 196.858 29.8296C195.993 29.3832 195.098 28.9957 194.181 28.6699C193.633 28.4828 193.05 28.42 192.475 28.4859C191.9 28.5518 191.346 28.7448 190.855 29.0509C190.513 29.2603 190.162 29.4947 189.884 29.7062C189.699 29.8468 189.552 30.0308 189.455 30.2419C189.358 30.453 189.314 30.6848 189.328 30.9168C189.429 32.3999 190.043 36.0275 193.805 35.9944ZM190.57 30.8417C190.71 30.1352 191.762 29.8605 192.362 29.7044C192.837 29.5362 193.353 29.518 193.839 29.652C193.954 29.6877 194.999 30.0475 195.094 30.8914C195.189 31.7354 194.249 32.3237 194.102 32.4122C193.751 32.6238 193.351 32.7418 192.941 32.7548C192.531 32.7678 192.125 32.6755 191.761 32.4867C191.222 32.2074 190.433 31.5207 190.57 30.8417Z" fill="#1E1D22"/>
<path d="M40.8747 42.1814H30.7236C30.5901 42.1814 30.462 42.1283 30.3676 42.0337C30.2732 41.9391 30.2202 41.8108 30.2202 41.677V28.8271C30.2202 28.6934 30.2732 28.5651 30.3676 28.4705C30.462 28.3759 30.5901 28.3228 30.7236 28.3228H44.7957C44.9292 28.3228 45.0572 28.3759 45.1516 28.4705C45.246 28.5651 45.2991 28.6934 45.2991 28.8271V38.1767L40.8747 42.1814Z" fill="#FFE3CB"/>
<path d="M45.2989 38.1924H40.875V42.1811L45.2989 38.1924Z" fill="#FECA9C"/>
<path d="M39.7675 27.0249H35.2475C34.9695 27.0249 34.7441 27.2507 34.7441 27.5293V29.2442C34.7441 29.5228 34.9695 29.7486 35.2475 29.7486H39.7675C40.0455 29.7486 40.2709 29.5228 40.2709 29.2442V27.5293C40.2709 27.2507 40.0455 27.0249 39.7675 27.0249Z" fill="#FECA9C"/>
<path d="M41.2774 33.0371H34.2104V33.5415H41.2774V33.0371Z" fill="#FECA9C"/>
<path d="M41.2774 36.0635H34.2104V36.5679H41.2774V36.0635Z" fill="#FECA9C"/>
<path d="M13.9366 121.183C15.1505 122.128 17.2892 124.373 17.3469 126.056C17.3469 126.056 21.2775 121.774 20.16 118.111C19.498 116.742 18.3997 115.634 17.0387 114.961C17.0387 114.961 18.58 114.094 20.1984 116.221C20.1984 116.221 19.6205 110.471 11.6247 112.558C11.6247 112.558 8.50336 106.178 2.31872 112.204C2.31872 112.204 6.48038 111.672 5.67116 112.972C4.16458 113.396 2.75449 114.109 1.51907 115.072C1.1047 115.44 0.767719 115.887 0.527855 116.387C0.287992 116.886 0.150072 117.429 0.122173 117.983C0.0259032 119.539 -0.121798 122.617 0.180058 122.66C0.584591 122.719 3.24353 120.297 5.03538 120.474C6.82724 120.651 0.931421 125.968 0.931421 125.968C0.931421 125.968 2.14533 130.575 2.66558 130.516C3.18567 130.457 5.07395 129.138 4.30315 130.516L2.97382 131.58L4.70784 133.982L9.0622 132.052C9.0622 132.052 7.1355 126.775 8.90807 128.212C8.90807 128.212 10.2567 130.004 10.276 131.343C10.276 131.343 16.1042 128.803 15.5263 127.061C14.897 125.444 14.1611 123.87 13.3234 122.351C13.183 122.094 13.1007 121.81 13.0826 121.518C13.0633 121.075 13.1788 120.592 13.9366 121.183ZM13.2206 115.066C13.7665 114.688 15.1088 114.931 15.6129 116.162C16.1525 117.478 16.1299 118.945 15.5841 119.322C15.0381 119.699 13.4871 119.207 13.0986 117.934C12.6683 116.516 12.6747 115.443 13.2206 115.066Z" fill="#8B9D36"/>
<path d="M11.6248 112.558C11.0032 113.267 10.4286 114.015 9.90459 114.799C9.40915 115.596 9.00046 116.444 8.68552 117.329C8.37306 118.216 8.10509 119.118 7.88261 120.031C7.65006 120.947 7.42792 121.862 7.24273 122.786C7.04651 123.708 6.87506 124.635 6.73466 125.566C6.59008 126.498 6.50689 127.434 6.39269 128.376C6.17116 130.268 5.60808 132.104 4.73096 133.794C5.10484 132.927 5.41337 132.034 5.65396 131.121C5.90347 130.215 6.06774 129.287 6.14465 128.35C6.28339 126.458 6.54427 124.578 6.92565 122.72C7.12165 121.792 7.35526 120.871 7.59747 119.957C7.8256 119.034 8.11157 118.126 8.45366 117.239C8.80083 116.351 9.24326 115.504 9.77315 114.711C10.3351 113.948 10.9541 113.228 11.6248 112.558Z" fill="#5E7C24"/>
<path d="M9.35497 115.56C8.71911 115.694 8.09382 115.875 7.48404 116.1C6.87596 116.321 6.27492 116.562 5.69163 116.843C4.50868 117.372 3.38666 118.023 2.2417 118.662C2.49169 118.45 2.75263 118.251 3.01143 118.049C3.28237 117.864 3.54916 117.672 3.82651 117.496C4.38426 117.146 4.96187 116.83 5.55641 116.548C6.15725 116.276 6.77626 116.047 7.40893 115.863C8.04105 115.674 8.69565 115.573 9.35497 115.56Z" fill="#5E7C24"/>
<path d="M6.72068 124.696C6.27288 125.044 5.80671 125.329 5.35147 125.626C5.12333 125.772 4.90053 125.924 4.68306 126.08C4.45872 126.229 4.26987 126.426 4.12988 126.657C4.16061 126.363 4.29725 126.091 4.51412 125.891C4.71424 125.688 4.936 125.508 5.17544 125.353C5.64765 125.044 6.17085 124.822 6.72068 124.696Z" fill="#5E7C24"/>
<path d="M7.61328 120.488C8.14099 120.984 8.63319 121.516 9.0862 122.08C9.54262 122.644 9.96587 123.234 10.3538 123.847C10.7396 124.465 11.0707 125.116 11.3433 125.791C11.6245 126.466 11.7787 127.186 11.798 127.917C11.6574 127.215 11.4275 126.533 11.114 125.89C10.8125 125.243 10.4666 124.618 10.0788 124.019C9.71539 123.403 9.30135 122.818 8.88855 122.231C8.47435 121.645 8.04664 121.067 7.61328 120.488Z" fill="#5E7C24"/>
<path d="M2.28027 138.944L3.8987 140.44C3.8987 140.44 5.4786 138.766 5.652 139.928C5.652 139.928 5.40153 141.09 5.09326 141.188C5.09326 141.188 8.96593 144.309 9.74624 141.74C10.0599 140.59 10.4559 139.465 10.9312 138.373C10.9312 138.373 11.7982 138.845 11.0468 142.567C11.0468 142.567 14.0439 141.684 15.1568 140.065C15.2847 139.874 15.3528 139.649 15.3526 139.419C15.3634 138.493 15.4851 135.888 16.5379 136.866C16.5379 136.866 17.1448 137.162 16.6824 139.141C16.6824 139.141 19.1215 136.385 17.9629 134.691C17.734 134.374 17.4024 134.146 17.0246 134.046C16.6468 133.946 16.2461 133.981 15.8908 134.144C15.2134 134.438 13.9566 134.981 11.6248 135.98C8.62274 137.295 5.49053 138.288 2.28027 138.944Z" fill="#8B9D36"/>
<path d="M7.61328 141.228C7.76324 140.376 8.03141 139.55 8.40999 138.774C8.59681 138.379 8.82628 138.007 9.09428 137.662C9.23084 137.488 9.38876 137.331 9.56436 137.195C9.73857 137.054 9.95576 136.976 10.1801 136.975C9.79744 137.141 9.48562 137.437 9.29954 137.811C9.07969 138.168 8.87992 138.537 8.70117 138.916C8.3291 139.674 7.9977 140.455 7.61328 141.228Z" fill="#5E7C24"/>
<path d="M12.8772 140.007C12.833 139.245 12.9021 138.48 13.0824 137.738C13.1723 137.364 13.299 136.999 13.4608 136.649C13.6096 136.284 13.8799 135.982 14.2259 135.793C13.9757 136.065 13.7935 136.391 13.6944 136.747C13.5814 137.097 13.4843 137.454 13.3974 137.815C13.2219 138.538 13.0763 139.27 12.8772 140.007Z" fill="#5E7C24"/>
<path d="M39.8122 113.18C39.8122 113.18 35.9203 113.739 39.3884 116.496C39.3884 116.496 40.2746 117.244 43.1647 118.111C43.1647 118.111 44.9758 110.218 39.8122 113.18Z" fill="#5E7C24"/>
<path d="M43.165 118.111C43.0929 117.852 43.0457 117.593 42.9808 117.339C42.8998 117.088 42.8413 116.834 42.7526 116.59C42.5859 116.102 42.3677 115.633 42.1019 115.191C41.831 114.756 41.5007 114.361 41.1206 114.018C40.7345 113.667 40.2923 113.384 39.8125 113.18C40.3467 113.269 40.8506 113.489 41.2796 113.82C41.7157 114.149 42.0877 114.556 42.3771 115.02C42.6564 115.485 42.8645 115.99 42.9943 116.518C43.065 116.778 43.0916 117.048 43.1363 117.31C43.1494 117.579 43.1656 117.845 43.165 118.111Z" fill="#50661A"/>
<path d="M34.8729 97.2329C34.8729 97.2329 39.1877 94.4782 40.4801 100.595C40.4801 100.595 38.2408 98.6634 38.2112 99.7807C38.9365 100.632 39.4883 101.617 39.8355 102.681C40.0366 103.473 39.9248 104.313 39.5234 105.025C38.9749 106.026 37.8667 107.99 37.672 107.901C37.4112 107.782 36.7901 105.257 35.6682 104.677C34.5462 104.098 35.9443 109.664 35.9443 109.664C35.9443 109.664 33.4395 112.054 33.1567 111.817C32.8739 111.58 32.2767 110.036 32.194 111.187L32.5621 112.357L30.609 113.18L28.8001 110.307C28.8001 110.307 31.9841 107.776 30.3835 107.985C30.3835 107.985 28.8942 108.578 28.3623 109.4C28.3623 109.4 25.9244 105.582 26.9416 104.724C27.9352 103.968 28.9767 103.277 30.0595 102.655C30.2779 102.531 30.4606 102.352 30.59 102.137C30.7335 101.889 30.7615 101.625 30.161 101.691C29.0801 101.81 26.9505 102.379 26.2619 103.4C26.2619 103.4 25.617 99.232 27.6977 97.391C28.6041 96.8029 29.6818 96.5379 30.757 96.6388C30.757 96.6388 30.1879 95.5083 28.4099 96.204C28.4099 96.204 30.985 92.8612 34.8729 97.2329Z" fill="#5E7C24"/>
<path d="M36.8064 104.081C36.4543 103.221 36.1239 102.368 35.7222 101.556C35.525 101.152 35.2913 100.768 35.0241 100.408C34.773 100.032 34.3888 99.7662 33.9492 99.6639C34.19 99.6562 34.4293 99.7042 34.6485 99.8041C34.8678 99.904 35.0612 100.053 35.2137 100.24C35.5339 100.59 35.8027 100.984 36.012 101.41C36.424 102.25 36.6925 103.152 36.8064 104.081Z" fill="#50661A"/>
<path d="M27.9438 106.139C28.1638 105.661 28.4408 105.213 28.7686 104.802C29.0924 104.382 29.4686 104.005 29.8879 103.681C30.3092 103.347 30.7918 103.099 31.3084 102.951C31.8264 102.813 32.3732 102.831 32.8812 103.002C32.3742 102.958 31.8638 103.023 31.3839 103.193C30.9158 103.374 30.4778 103.626 30.0848 103.939C29.6814 104.249 29.3048 104.593 28.9593 104.967C28.61 105.342 28.2667 105.728 27.9438 106.139Z" fill="#50661A"/>
<path d="M31.9897 97.79C32.1487 97.5772 32.3483 97.3982 32.5771 97.2635C32.8058 97.1288 33.059 97.0412 33.3219 97.0056C33.5858 96.9644 33.8539 96.9573 34.1196 96.9843C34.3843 97.0145 34.6458 97.0684 34.901 97.1454L34.9959 97.1721L34.9572 97.2701C34.4531 98.546 34.0248 99.8566 33.6019 101.164C33.188 102.476 32.8152 103.8 32.4502 105.127C32.0993 106.457 31.7708 107.793 31.4647 109.136C31.1568 110.478 30.886 111.828 30.6089 113.18C30.7782 111.811 30.9817 110.445 31.2484 109.09C31.491 107.73 31.8203 106.388 32.1544 105.049C32.4915 103.709 32.8918 102.386 33.3228 101.074C33.7511 99.7598 34.2311 98.4649 34.7884 97.1964L34.8444 97.321L34.4762 97.211C34.3509 97.1873 34.2264 97.156 34.1004 97.1352C33.8478 97.0943 33.591 97.086 33.3363 97.1104C32.8166 97.1539 32.334 97.3975 31.9897 97.79Z" fill="#50661A"/>
<path d="M33.3238 109.615C33.1984 109.143 33.0252 108.685 32.8069 108.249C32.705 108.053 32.5523 107.888 32.3647 107.772C32.148 107.675 31.9114 107.631 31.6743 107.643C31.7918 107.573 31.9222 107.528 32.0575 107.51C32.1928 107.492 32.3304 107.501 32.4621 107.538C32.73 107.638 32.9521 107.833 33.087 108.086C33.3403 108.552 33.424 109.093 33.3238 109.615Z" fill="#50661A"/>
<path d="M18.9269 141.228C18.9269 141.228 18.1599 138.575 16.2127 140.075C15.5508 140.602 15.0773 141.33 14.8633 142.149C14.5121 143.419 14.2086 145.72 15.0735 148.986C15.0735 148.986 17.0669 146.223 18.5416 145.245C20.2047 144.142 21.2775 141.622 18.9269 141.228Z" fill="#C4CE6E"/>
<path d="M18.9266 141.228C18.6338 141.445 18.3783 141.708 18.1704 142.008C17.9502 142.296 17.7509 142.6 17.574 142.916C17.2135 143.548 16.8929 144.201 16.6141 144.873C16.32 145.54 16.0664 146.225 15.8146 146.912L15.0732 148.986C15.1365 148.623 15.2203 148.265 15.2935 147.903C15.3781 147.544 15.4834 147.191 15.5776 146.834C15.7823 146.125 16.0414 145.432 16.3165 144.745C16.6122 144.064 16.9624 143.408 17.3636 142.784C17.7458 142.142 18.2834 141.607 18.9266 141.228Z" fill="#8B9D36"/>
<path d="M21.7374 104.37C21.7374 104.37 21.8023 101.604 19.4992 102.422C18.7113 102.717 18.0416 103.262 17.5929 103.975C16.8781 105.074 15.8995 107.169 15.7441 110.549C15.7441 110.549 18.4699 108.542 20.1667 108.073C22.0804 107.544 23.857 105.481 21.7374 104.37Z" fill="#8B9D36"/>
<path d="M21.7374 104.37C21.3937 104.484 21.0714 104.655 20.7834 104.875C20.4873 105.08 20.2063 105.307 19.9428 105.553C19.4102 106.042 18.9091 106.564 18.4424 107.116C17.9626 107.659 17.5161 108.231 17.0707 108.806L15.7441 110.549C15.913 110.224 16.1001 109.909 16.2781 109.588C16.4659 109.273 16.672 108.97 16.8685 108.66C17.2818 108.052 17.7255 107.466 18.1977 106.903C18.6834 106.347 19.2135 105.832 19.7828 105.363C20.3395 104.871 21.0122 104.529 21.7374 104.37Z" fill="#5E7C24"/>
<path d="M39.1199 141.228C39.1199 141.228 39.887 138.575 41.8342 140.075C42.4961 140.602 42.9696 141.33 43.1836 142.149C43.5348 143.419 43.8383 145.72 42.9734 148.986C42.9734 148.986 40.98 146.223 39.5053 145.245C37.8422 144.142 36.7694 141.622 39.1199 141.228Z" fill="#8B9D36"/>
<path d="M39.1201 141.228C39.7634 141.607 40.3009 142.142 40.6832 142.784C41.0843 143.408 41.4345 144.064 41.7302 144.745C42.0111 145.428 42.2577 146.126 42.4691 146.834C42.5633 147.191 42.6686 147.544 42.7532 147.903C42.8264 148.265 42.9102 148.623 42.9735 148.986L42.2322 146.912C41.9803 146.225 41.7267 145.54 41.4326 144.873C41.1538 144.201 40.8333 143.548 40.4728 142.916C40.2958 142.6 40.0965 142.296 39.8764 142.008C39.6684 141.708 39.4129 141.445 39.1201 141.228Z" fill="#5E7C24"/>
<path d="M39.8121 113.18C39.8121 113.18 30.1169 104.879 27.6045 153.377" stroke="#50661A" stroke-width="0.64428" stroke-miterlimit="10"/>
<path d="M30.6091 113.18C30.6091 113.18 25.7859 145.166 28.676 153.377" stroke="#50661A" stroke-width="0.64428" stroke-miterlimit="10"/>
<path d="M26.8371 153.377C26.8371 153.377 23.2527 138.963 18.9268 141.228" stroke="#50661A" stroke-width="0.64428" stroke-miterlimit="10"/>
<path d="M27.3524 149.079C27.3524 149.079 30.4763 95.5264 21.7373 104.37" stroke="#50661A" stroke-width="0.64428" stroke-miterlimit="10"/>
<path d="M31.2095 153.377C31.2095 153.377 34.7939 138.963 39.1198 141.228" stroke="#50661A" stroke-width="0.64428" stroke-miterlimit="10"/>
<path d="M17.6909 134.389C17.6909 134.389 24.4759 132.721 28.1752 153.042" stroke="#50661A" stroke-width="0.64428" stroke-miterlimit="10"/>
<path d="M19.9258 121.798C19.9258 121.798 21.8915 123.112 29.3298 153.042" stroke="#50661A" stroke-width="0.64428" stroke-miterlimit="10"/>
<path d="M38.5057 128.589C38.5057 128.589 31.1588 140.244 30.4761 153.377" stroke="#50661A" stroke-width="0.64428" stroke-miterlimit="10"/>
<path d="M18.9654 149.937V152.634C18.963 152.882 19.0589 153.12 19.232 153.297C19.4052 153.474 19.6414 153.575 19.8887 153.578H38.388C38.6353 153.575 38.8715 153.474 39.0447 153.297C39.2178 153.12 39.3138 152.882 39.3113 152.634V150.149C39.3137 149.903 39.2192 149.666 39.0483 149.489C38.8773 149.312 38.6438 149.21 38.3984 149.205L19.899 148.994C19.7757 148.993 19.6536 149.018 19.5397 149.065C19.4258 149.113 19.3225 149.182 19.2356 149.27C19.1488 149.358 19.0802 149.462 19.0338 149.577C18.9874 149.691 18.9642 149.814 18.9654 149.937Z" fill="#D6694B"/>
<path d="M19.8486 153.577L20.5065 167.495H37.3353L38.4286 153.577H19.8486Z" fill="#E19974"/>
<path d="M35.4773 127.795C35.503 126.525 38.1234 128.829 38.1234 128.829C36.5627 121.809 31.5758 124.737 31.5758 124.737C27.0159 119.578 24.0553 123.257 24.0553 123.257C26.1135 122.551 26.7847 123.864 26.7847 123.864C25.556 123.691 24.3049 123.941 23.2363 124.573C20.8377 126.568 21.6245 131.34 21.6245 131.34C22.4144 130.211 24.8869 129.666 26.1392 129.581C26.926 129.528 26.7879 129.915 26.5761 130.211C26.4339 130.402 26.2506 130.559 26.0398 130.67C24.7875 131.324 23.5806 132.062 22.4272 132.879C21.2519 133.804 24.1227 138.264 24.1227 138.264C24.7328 137.355 26.4572 136.751 26.4572 136.751C28.3165 136.591 24.6396 139.318 24.6396 139.318L26.7686 142.672L29.0325 141.828L28.5926 140.48C28.6793 139.173 29.3858 140.959 29.7165 141.241C30.0472 141.526 32.9372 138.927 32.9372 138.927C32.9372 138.927 31.2611 132.528 32.568 133.243C33.8782 133.955 34.6231 136.856 34.9282 137.004C35.1562 137.116 36.4247 134.933 37.054 133.821C37.282 133.423 37.4294 132.985 37.4878 132.531C37.5463 132.076 37.5145 131.614 37.3944 131.172C36.974 129.935 36.3234 128.79 35.4773 127.795ZM28.1655 127.743C27.3305 128.435 26.0461 128.051 25.8407 127.536C25.6318 127.024 26.2709 126.003 27.2278 125.354C28.1238 124.743 29.1545 125.199 29.3601 125.715C29.5688 126.227 29.0936 126.968 28.1655 127.743Z" fill="#5E7C24"/>
<path d="M31.5751 124.737C31.7413 125.502 31.85 126.278 31.9002 127.06C31.9157 127.847 31.8458 128.634 31.6918 129.407C31.535 130.176 31.3284 130.934 31.0734 131.677C30.8325 132.418 30.5831 133.161 30.3042 133.893C29.7358 135.35 29.0717 136.769 28.3165 138.139C27.9478 138.819 27.6438 139.533 27.4086 140.271C27.1632 141.009 26.9723 141.764 26.8374 142.531C26.9763 140.964 27.4023 139.437 28.094 138.026C28.8112 136.647 29.4483 135.228 30.0021 133.776C30.2878 133.054 30.5439 132.322 30.7938 131.584C31.0456 130.848 31.2718 130.107 31.4488 129.356C31.6278 128.604 31.7262 127.835 31.7422 127.062C31.7347 126.284 31.6789 125.508 31.5751 124.737Z" fill="#50661A"/>
<path d="M31.7944 127.855C32.2511 128.164 32.6625 128.534 33.0168 128.956C33.3754 129.374 33.7005 129.82 33.9889 130.289C34.2755 130.758 34.5298 131.246 34.7501 131.75C34.9705 132.252 35.1528 132.77 35.2954 133.3L34.5229 131.861C34.2599 131.388 33.9991 130.916 33.7131 130.46C33.432 130 33.1342 129.552 32.8197 129.114C32.5052 128.673 32.1628 128.253 31.7944 127.855Z" fill="#50661A"/>
<path d="M29.5288 135.356C29.867 135.686 30.137 136.079 30.3233 136.513C30.419 136.732 30.4892 136.961 30.5324 137.196C30.5896 137.438 30.5543 137.693 30.4333 137.91C30.4288 137.686 30.3793 137.465 30.2878 137.261C30.2039 137.055 30.1177 136.849 30.0263 136.644C29.8329 136.226 29.6667 135.796 29.5288 135.356Z" fill="#50661A"/>
<path d="M30.7926 132.051L29.1467 132.675C28.6032 132.889 28.0621 133.106 27.5356 133.352C27.0053 133.586 26.4895 133.852 25.9913 134.149C25.4875 134.441 25.022 134.795 24.6055 135.203C24.9349 134.704 25.3584 134.274 25.8521 133.937C26.3381 133.593 26.8572 133.297 27.4016 133.056C28.4798 132.565 29.6211 132.227 30.7926 132.051Z" fill="#50661A"/>
<path d="M47.1053 119.86C47.1053 119.86 50.8644 114.233 55.5656 120.878C55.5656 120.878 51.8837 119.765 52.4236 121.122C53.7325 121.753 54.9029 122.639 55.8665 123.728C56.5178 124.577 56.8163 125.645 56.6995 126.71C56.5566 128.205 56.2387 131.159 55.9592 131.157C55.5849 131.154 53.539 128.458 51.894 128.366C50.2489 128.274 54.7934 134.201 54.7934 134.201C54.7934 134.201 53.0186 138.416 52.5573 138.284C52.0959 138.152 50.5839 136.621 51.0775 138.046L52.1223 139.253L50.202 141.29L46.5517 138.816C46.5517 138.816 49.0692 134.067 47.2561 135.179C47.2561 135.179 45.7738 136.69 45.5594 137.964C45.5594 137.964 40.6672 134.693 41.4459 133.116C42.2472 131.677 43.1394 130.29 44.117 128.964C44.314 128.699 44.4421 128.39 44.4897 128.063C44.5385 127.683 44.4422 127.338 43.7471 127.745C42.5113 128.469 40.2486 130.297 39.9486 131.894C39.9486 131.894 37.0276 127.239 38.5763 123.91C39.3587 122.719 40.5138 121.823 41.8601 121.361C41.8601 121.361 40.5949 120.311 38.8197 122.102C38.8197 122.102 40.1881 116.706 47.1053 119.86Z" fill="#C4CE6E"/>
<path d="M47.105 119.86C47.7621 121.555 48.3052 123.292 48.7308 125.059C49.1718 126.823 49.5131 128.612 49.7804 130.411C50.0402 132.212 50.2084 134.024 50.2844 135.842C50.3627 137.658 50.3351 139.477 50.2016 141.29C50.1874 139.474 50.1783 137.662 50.0353 135.856C49.9211 134.049 49.7293 132.249 49.4598 130.458C49.2206 128.663 48.8763 126.885 48.4891 125.116C48.0997 123.348 47.6504 121.591 47.105 119.86Z" fill="#8B9D36"/>
<path d="M48.0433 122.855C47.7391 123.235 47.4674 123.639 47.2309 124.063C46.9948 124.483 46.7819 124.916 46.5932 125.359C46.4038 125.802 46.2389 126.256 46.0863 126.716C45.9351 127.177 45.8 127.645 45.6562 128.118C45.6713 127.623 45.7336 127.131 45.8423 126.649C45.951 126.164 46.1026 125.689 46.2952 125.231C46.4917 124.773 46.734 124.337 47.0185 123.928C47.2977 123.515 47.6442 123.153 48.0433 122.855Z" fill="#8B9D36"/>
<path d="M49.6074 130.308C50.1053 130.42 50.5746 130.634 50.9863 130.936C51.398 131.239 51.7431 131.622 52.0002 132.064C52.1721 132.357 52.2942 132.676 52.3613 133.008C52.017 132.458 51.6093 131.95 51.1465 131.495C50.6767 131.046 50.1608 130.648 49.6074 130.308Z" fill="#8B9D36"/>
<path d="M242.604 168H15.0917C14.9582 168 14.8302 167.947 14.7358 167.852C14.6414 167.758 14.5884 167.629 14.5884 167.496C14.5884 167.362 14.6414 167.234 14.7358 167.139C14.8302 167.044 14.9582 166.991 15.0917 166.991H242.604C242.737 166.991 242.865 167.044 242.96 167.139C243.054 167.234 243.107 167.362 243.107 167.496C243.107 167.629 243.054 167.758 242.96 167.852C242.865 167.947 242.737 168 242.604 168Z" fill="#935B50"/>
</g>
<defs>
<clipPath id="clip0_1529_1851">
<rect width="252" height="168" fill="white"/>
</clipPath>
</defs>
</svg>
