<svg width="200" height="200" viewBox="0 0 200 200" fill="none" xmlns="http://www.w3.org/2000/svg">
  <!-- Kazakh ornament pattern elements -->
  <path d="M180 40C180 40 160 20 140 40C120 60 100 40 80 20C60 0 40 20 20 40" stroke="#FFFFFF" stroke-width="2" stroke-opacity="0.2"/>
  <path d="M180 80C180 80 160 60 140 80C120 100 100 80 80 60C60 40 40 60 20 80" stroke="#FFFFFF" stroke-width="2" stroke-opacity="0.2"/>
  <path d="M180 120C180 120 160 100 140 120C120 140 100 120 80 100C60 80 40 100 20 120" stroke="#FFFFFF" stroke-width="2" stroke-opacity="0.2"/>

  <!-- Kazakh flag sun element -->
  <circle cx="160" cy="40" r="15" fill="#FFC107" fill-opacity="0.3"/>
  <path d="M160 25L162 35L170 28L165 37L175 37L165 42L170 50L162 45L160 55L158 45L150 50L155 42L145 37L155 37L150 28L158 35L160 25Z" fill="#FFC107" fill-opacity="0.5"/>
  
  <!-- Kazakh alphabet elements -->
  <text x="30" y="50" font-family="Arial" font-size="16" fill="#FFFFFF" fill-opacity="0.4">Ә</text>
  <text x="50" y="70" font-family="Arial" font-size="16" fill="#FFFFFF" fill-opacity="0.4">Ғ</text>
  <text x="70" y="90" font-family="Arial" font-size="16" fill="#FFFFFF" fill-opacity="0.4">Қ</text>
  <text x="90" y="110" font-family="Arial" font-size="16" fill="#FFFFFF" fill-opacity="0.4">Ң</text>
  <text x="110" y="130" font-family="Arial" font-size="16" fill="#FFFFFF" fill-opacity="0.4">Ө</text>
  <text x="130" y="150" font-family="Arial" font-size="16" fill="#FFFFFF" fill-opacity="0.4">Ұ</text>
  <text x="150" y="170" font-family="Arial" font-size="16" fill="#FFFFFF" fill-opacity="0.4">Ү</text>
  <text x="40" y="150" font-family="Arial" font-size="16" fill="#FFFFFF" fill-opacity="0.4">Һ</text>
  <text x="60" y="130" font-family="Arial" font-size="16" fill="#FFFFFF" fill-opacity="0.4">І</text>
  
  <!-- Shanyrak (traditional Kazakh symbol) simplified -->
  <circle cx="60" cy="60" r="20" stroke="#FFFFFF" stroke-width="2" stroke-opacity="0.3" fill="none"/>
  <circle cx="60" cy="60" r="15" stroke="#FFFFFF" stroke-width="1.5" stroke-opacity="0.3" fill="none"/>
  <circle cx="60" cy="60" r="10" stroke="#FFFFFF" stroke-width="1" stroke-opacity="0.3" fill="none"/>
  <line x1="40" y1="60" x2="80" y2="60" stroke="#FFFFFF" stroke-width="1" stroke-opacity="0.3"/>
  <line x1="60" y1="40" x2="60" y2="80" stroke="#FFFFFF" stroke-width="1" stroke-opacity="0.3"/>
  <line x1="45" y1="45" x2="75" y2="75" stroke="#FFFFFF" stroke-width="1" stroke-opacity="0.3"/>
  <line x1="75" y1="45" x2="45" y2="75" stroke="#FFFFFF" stroke-width="1" stroke-opacity="0.3"/>
</svg>
