<svg width="34" height="33" viewBox="0 0 34 33" fill="none" xmlns="http://www.w3.org/2000/svg">
<path d="M14.1398 21.2305C14.1398 22.2194 13.8344 23.1861 13.2621 24.0083C12.6898 24.8306 11.8763 25.4714 10.9246 25.8499C9.97292 26.2283 8.9257 26.3273 7.91539 26.1344C6.90507 25.9415 5.97703 25.4653 5.24863 24.766C4.52023 24.0667 4.02419 23.1758 3.82322 22.2059C3.62226 21.236 3.7254 20.2307 4.11961 19.3171C4.51381 18.4034 5.18138 17.6225 6.03789 17.0731C6.89439 16.5237 7.90137 16.2305 8.93148 16.2305C10.3128 16.2305 11.6376 16.7573 12.6143 17.6949C13.5911 18.6326 14.1398 19.9044 14.1398 21.2305ZM25.5981 16.2305C24.568 16.2305 23.5611 16.5237 22.7046 17.0731C21.848 17.6225 21.1805 18.4034 20.7863 19.3171C20.3921 20.2307 20.2889 21.236 20.4899 22.2059C20.6909 23.1758 21.1869 24.0667 21.9153 24.766C22.6437 25.4653 23.5717 25.9415 24.5821 26.1344C25.5924 26.3273 26.6396 26.2283 27.5913 25.8499C28.543 25.4714 29.3564 24.8306 29.9287 24.0083C30.501 23.1861 30.8065 22.2194 30.8065 21.2305C30.8065 19.9044 30.2577 18.6326 29.281 17.6949C28.3042 16.7573 26.9795 16.2305 25.5981 16.2305Z" fill="#3DB2FF" fill-opacity="0.3"/>
<path d="M31.4837 19.2147C31.3967 18.9817 31.2945 18.7541 31.1777 18.5335L25.7624 6.70596C25.7111 6.59204 25.6378 6.48853 25.5462 6.40096C25.1593 6.02943 24.6999 5.73471 24.1943 5.53363C23.6888 5.33256 23.1469 5.22906 22.5996 5.22906C22.0524 5.22906 21.5105 5.33256 21.0049 5.53363C20.4993 5.73471 20.0399 6.02943 19.653 6.40096C19.4583 6.58804 19.3488 6.84153 19.3483 7.10596V10.231H15.1816V7.10596C15.1818 6.9746 15.1549 6.8445 15.1026 6.72311C15.0503 6.60171 14.9737 6.4914 14.877 6.39846C14.49 6.02693 14.0307 5.73221 13.5251 5.53113C13.0195 5.33006 12.4776 5.22656 11.9303 5.22656C11.3831 5.22656 10.8412 5.33006 10.3356 5.53113C9.83002 5.73221 9.37065 6.02693 8.98373 6.39846C8.89217 6.48603 8.81881 6.58954 8.76758 6.70346L3.35221 18.531C3.2354 18.7516 3.1332 18.9792 3.04622 19.2122C2.73958 20.0359 2.62424 20.9139 2.70828 21.7849C2.79233 22.6559 3.07371 23.4987 3.53274 24.2543C3.99177 25.0098 4.61733 25.6599 5.3656 26.159C6.11387 26.6581 6.96676 26.994 7.86452 27.1434C8.76228 27.2927 9.6832 27.2518 10.5628 27.0236C11.4423 26.7953 12.2593 26.3851 12.9563 25.8219C13.6534 25.2586 14.2138 24.5559 14.5982 23.7628C14.9826 22.9698 15.1817 22.1057 15.1816 21.231V12.231H19.3483V21.231C19.3478 22.1058 19.5467 22.9701 19.9308 23.7633C20.3149 24.5566 20.8751 25.2596 21.5721 25.8232C22.2691 26.3867 23.086 26.7971 23.9656 27.0256C24.8452 27.2542 25.7662 27.2953 26.6641 27.1461C27.562 26.9969 28.4151 26.6611 29.1635 26.162C29.912 25.663 30.5377 25.0129 30.9969 24.2573C31.456 23.5017 31.7375 22.6588 31.8216 21.7877C31.9057 20.9167 31.7904 20.0385 31.4837 19.2147ZM10.5866 7.69971C10.9339 7.41899 11.3672 7.25486 11.8206 7.23229C12.274 7.20973 12.7226 7.32997 13.0983 7.57471V16.7635C12.285 16.0624 11.2941 15.5788 10.2248 15.3612C9.15557 15.1436 8.04551 15.1995 7.00586 15.5235L10.5866 7.69971ZM8.93164 25.231C8.10755 25.231 7.30197 24.9964 6.61677 24.5568C5.93156 24.1173 5.39751 23.4926 5.08214 22.7617C4.76678 22.0308 4.68426 21.2265 4.84504 20.4506C5.00581 19.6747 5.40264 18.9619 5.98536 18.4025C6.56808 17.8431 7.31051 17.4622 8.11877 17.3078C8.92702 17.1535 9.7648 17.2327 10.5262 17.5354C11.2875 17.8382 11.9383 18.3509 12.3961 19.0087C12.8539 19.6665 13.0983 20.4398 13.0983 21.231C13.0983 22.2918 12.6593 23.3092 11.8779 24.0594C11.0965 24.8095 10.0367 25.231 8.93164 25.231ZM21.4316 7.57346C21.8073 7.32872 22.256 7.20848 22.7094 7.23104C23.1628 7.25361 23.5961 7.41774 23.9434 7.69846L27.5241 15.521C26.4843 15.1972 25.3742 15.1414 24.3049 15.3593C23.2357 15.5771 22.2448 16.0609 21.4316 16.7622V7.57346ZM25.5983 25.231C24.7742 25.231 23.9686 24.9964 23.2834 24.5568C22.5982 24.1173 22.0642 23.4926 21.7488 22.7617C21.4334 22.0308 21.3509 21.2265 21.5117 20.4506C21.6725 19.6747 22.0693 18.9619 22.652 18.4025C23.2348 17.8431 23.9772 17.4622 24.7854 17.3078C25.5937 17.1535 26.4315 17.2327 27.1928 17.5354C27.9542 17.8382 28.6049 18.3509 29.0628 19.0087C29.5206 19.6665 29.765 20.4398 29.765 21.231C29.765 22.2918 29.326 23.3092 28.5446 24.0594C27.7632 24.8095 26.7034 25.231 25.5983 25.231Z" fill="black"/>
</svg>
