<?xml version="1.0" encoding="UTF-8"?>
<svg width="24px" height="24px" viewBox="0 0 24 24" version="1.1" xmlns="http://www.w3.org/2000/svg" xmlns:xlink="http://www.w3.org/1999/xlink">
    <g id="Google" stroke="none" stroke-width="1" fill="none" fill-rule="evenodd">
        <path d="M23.745,12.27 C23.745,11.48 23.675,10.73 23.545,10 L12.255,10 L12.255,14.51 L18.725,14.51 C18.435,15.99 17.585,17.24 16.325,18.09 L16.325,21.09 L20.185,21.09 C22.445,19 23.745,15.92 23.745,12.27 Z" fill="#4285F4" fill-rule="nonzero"></path>
        <path d="M12.255,24 C15.495,24 18.205,22.92 20.185,21.09 L16.325,18.09 C15.245,18.81 13.875,19.25 12.255,19.25 C9.125,19.25 6.475,17.14 5.525,14.29 L1.545,14.29 L1.545,17.38 C3.515,21.3 7.565,24 12.255,24 Z" fill="#34A853" fill-rule="nonzero"></path>
        <path d="M5.525,14.29 C5.275,13.57 5.145,12.8 5.145,12 C5.145,11.2 5.285,10.43 5.525,9.71 L5.525,6.62 L1.545,6.62 C0.725,8.24 0.255,10.06 0.255,12 C0.255,13.94 0.725,15.76 1.545,17.38 L5.525,14.29 Z" fill="#FBBC05" fill-rule="nonzero"></path>
        <path d="M12.255,4.75 C14.025,4.75 15.605,5.36 16.855,6.55 L20.275,3.13 C18.205,1.19 15.495,0 12.255,0 C7.565,0 3.515,2.7 1.545,6.62 L5.525,9.71 C6.475,6.86 9.125,4.75 12.255,4.75 Z" fill="#EA4335" fill-rule="nonzero"></path>
    </g>
</svg>
