<svg xmlns="http://www.w3.org/2000/svg" x="0px" y="0px" width="100" height="100" viewBox="0 0 512 512">
<path fill="#0053b5" d="M446,436H66c-27.614,0-50-22.386-50-50V126c0-27.614,22.386-50,50-50h380 c27.614,0,50,22.386,50,50v260C496,413.614,473.614,436,446,436z"></path><path fill="#ffda45" d="M319.255,226c-11.235,23.647-35.332,40-63.255,40s-52.019-16.353-63.255-40H158.5 v3c0,14.912,12.088,27,27,27h3v3c0,14.912,12.088,27,27,27h3v4.25c0,14.221,11.529,25.75,25.75,25.75h23.5 c14.221,0,25.75-11.529,25.75-25.75V286h3c14.912,0,27-12.088,27-27v-3h3c14.912,0,27-12.088,27-27v-3H319.255z"></path><polygon fill="#ffda45" points="256,156.557 264.534,180.012 288.467,165.098 278.343,188.135 308.533,187.459 283.618,201.279 308.533,215.098 278.343,214.422 288.467,237.459 264.534,222.545 256,246 247.466,222.545 223.533,237.459 233.657,214.422 203.467,215.098 228.382,201.279 203.467,187.459 233.657,188.135 223.533,165.098 247.466,180.012"></polygon>
</svg>