<svg width="153" height="85" viewBox="0 0 153 85" fill="none" xmlns="http://www.w3.org/2000/svg">
<path d="M41.3125 70.0625C41.3125 75.2708 41.875 78.5208 43 79.8125C44.5833 81.5625 47.0208 82.4375 50.3125 82.4375H53.25V84.75H17.3125V82.4375H20.3125C23.8958 82.4375 26.4375 81.3542 27.9375 79.1875C28.8542 77.8542 29.3125 74.8125 29.3125 70.0625V52.75H41.3125V70.0625ZM71.125 19.875H68.75C68.2917 16.375 67.6667 13.875 66.875 12.375C65.5833 9.95833 63.8542 8.1875 61.6875 7.0625C59.5625 5.89583 56.75 5.3125 53.25 5.3125H41.3125V31.75H29.3125V5.3125H19.125C15.1667 5.3125 12.3542 5.60417 10.6875 6.1875C8.52083 6.97917 6.66667 8.5 5.125 10.75C3.58333 13 2.66667 16.0417 2.375 19.875H0L1 0H70.1875L71.125 19.875Z" fill="white"/>
<path d="M150.692 52.75C152.063 55.398 152.75 58.3351 152.75 61.5625C152.75 65.7708 151.417 69.8125 148.75 73.6875C146.083 77.5208 142.417 80.3333 137.75 82.125C133.125 83.875 126.042 84.75 116.5 84.75H76.5V82.4375H79.6875C83.2292 82.4375 85.7708 81.3125 87.3125 79.0625C88.2708 77.6042 88.75 74.5 88.75 69.75V52.75H100.75V78.625C105.583 79.75 110.354 80.3125 115.062 80.3125C122.604 80.3125 128.354 78.625 132.312 75.25C136.271 71.8333 138.25 67.625 138.25 62.625C138.25 59.3333 137.354 56.1667 135.562 53.125C135.488 52.9988 135.411 52.874 135.333 52.75H150.692ZM113.125 0C119.958 0 125.438 0.5 129.562 1.5C135.812 3 140.583 5.66667 143.875 9.5C147.167 13.2917 148.812 17.6667 148.812 22.625C148.812 25.9315 148.03 28.9731 146.467 31.75H132.828C132.995 31.5056 133.158 31.2568 133.312 31C134.938 28.2917 135.75 25.3333 135.75 22.125C135.75 17.1667 133.729 12.9375 129.688 9.4375C125.646 5.9375 119.75 4.1875 112 4.1875C107.833 4.1875 104.083 4.64583 100.75 5.5625V31.75H88.75V15C88.75 9.75 88.1458 6.4375 86.9375 5.0625C85.3125 3.22917 82.8958 2.3125 79.6875 2.3125H76.5V0H113.125Z" fill="white"/>
<path d="M56.1348 38.3384V47.75H54.6699V38.3384H51.2568V37.02H59.7017V38.3384H56.1348ZM62.3958 47.75V37.02H63.8606V47.75H62.3958ZM67.5143 47.75V37.02H68.9791V46.4316H73.8277V47.75H67.5143ZM85.1047 47.75H82.0432V37.02C83.3469 36.9565 84.2868 36.9248 84.863 36.9248C85.9226 36.9248 86.7429 37.1543 87.3239 37.6133C87.905 38.0674 88.1955 38.7192 88.1955 39.5688C88.1955 40.0669 88.01 40.521 87.6389 40.9312C87.2678 41.3413 86.8576 41.5977 86.4084 41.7002C87.258 41.9053 87.8757 42.2446 88.2614 42.7183C88.6521 43.1919 88.8474 43.8364 88.8474 44.6519C88.8474 45.5942 88.5007 46.3462 87.8073 46.9077C87.1188 47.4692 86.218 47.75 85.1047 47.75ZM83.508 38.1919V41.2754C83.8156 41.3047 84.1965 41.3193 84.6506 41.3193C86.0373 41.3193 86.7307 40.7554 86.7307 39.6274C86.7307 38.6362 86.0935 38.1406 84.819 38.1406C84.3308 38.1406 83.8937 38.1577 83.508 38.1919ZM83.508 42.4106V46.5049C84.0109 46.5537 84.3967 46.5781 84.6652 46.5781C85.5832 46.5781 86.2521 46.4072 86.6721 46.0654C87.0969 45.7188 87.3093 45.1694 87.3093 44.4175C87.3093 43.7192 87.1066 43.2041 86.7014 42.8721C86.301 42.54 85.6296 42.374 84.6872 42.374L83.508 42.4106ZM91.9956 47.75V37.02H93.4604V47.75H91.9956ZM97.1141 47.75V37.02H98.5789V46.4316H103.428V47.75H97.1141Z" fill="white"/>
</svg>
