<svg xmlns="http://www.w3.org/2000/svg" x="0px" y="0px" width="100" height="100" viewBox="0 0 64 64">
<g data-name="24-Russia"><path fill="#eef2fa" d="M63,5V21H1V5A4,4,0,0,1,5,1H59A4,4,0,0,1,63,5Z"></path><rect width="62" height="22" x="1" y="21" fill="#2448a8"></rect><path fill="#e21743" d="M63,43V59a4,4,0,0,1-4,4H5a4,4,0,0,1-4-4V43Z"></path><path fill="#cdd2e1" d="M1,17v4h.37A22.058,22.058,0,0,1,1,17Z"></path><path fill="#cdd2e1" d="M63,21V17a22.058,22.058,0,0,1-.37,4Z"></path><path fill="#1f3d8f" d="M41,39H23A22,22,0,0,1,1.37,21H1V43H63V21h-.37A22,22,0,0,1,41,39Z"></path><path fill="#c7002b" d="M1,59a4,4,0,0,0,4,4H59a4,4,0,0,0,4-4V43H1Z"></path><path fill="#960e2c" d="M59,59H5a4,4,0,0,1-4-4v4a4,4,0,0,0,4,4H59a4,4,0,0,0,4-4V55A4,4,0,0,1,59,59Z"></path><path fill="#f7faff" d="M59,1H5A4,4,0,0,0,1,5V9A4,4,0,0,1,5,5H59a4,4,0,0,1,4,4V5A4,4,0,0,0,59,1Z"></path></g>
</svg>